# MagicaVoxel @ Ephtracy

# group
o 

# material
mtllib Market stail blue.mtl
usemtl palette

# normals
vn -1 0 0
vn 1 0 0
vn 0 0 1
vn 0 0 -1
vn 0 -1 0
vn 0 1 0

# texcoords
vt 0.537109 0.5
vt 0.541016 0.5

# verts
v 0 2 0
v 0 2 -0.1
v 0 2 -0.6
v 0 2 -0.7
v 0 2.6 0
v 0 2.6 -0.1
v 0 2.6 -0.6
v 0 2.6 -0.7
v 0 2.7 0
v 0 2.7 -0.7
v 0.2 2.5 -0.2
v 0.2 2.5 -0.5
v 0.2 2.6 -0.2
v 0.2 2.6 -0.5
v 0.5 2.6 -0.2
v 0.5 2.6 -0.5
v 0.5 2.7 -0.2
v 0.5 2.7 -0.5
v 0.6 2 0
v 0.6 2 -0.1
v 0.6 2 -0.6
v 0.6 2 -0.7
v 0.6 2.6 0
v 0.6 2.6 -0.1
v 0.6 2.6 -0.6
v 0.6 2.6 -0.7
v 0.1 2 0
v 0.1 2 -0.1
v 0.1 2 -0.6
v 0.1 2 -0.7
v 0.1 2.6 0
v 0.1 2.6 -0.1
v 0.1 2.6 -0.6
v 0.1 2.6 -0.7
v 0.2 2.6 -0.2
v 0.2 2.6 -0.5
v 0.2 2.7 -0.2
v 0.2 2.7 -0.5
v 0.5 2.5 -0.2
v 0.5 2.5 -0.5
v 0.5 2.6 -0.2
v 0.5 2.6 -0.5
v 0.7 2 0
v 0.7 2 -0.1
v 0.7 2 -0.6
v 0.7 2 -0.7
v 0.7 2.6 0
v 0.7 2.6 -0.1
v 0.7 2.6 -0.6
v 0.7 2.6 -0.7
v 0.7 2.7 0
v 0.7 2.7 -0.7
v 0 2 0
v 0 2.6 0
v 0 2.7 0
v 0.1 2 0
v 0.1 2.6 0
v 0.6 2 0
v 0.6 2.6 0
v 0.7 2 0
v 0.7 2.6 0
v 0.7 2.7 0
v 0.2 2.5 -0.2
v 0.2 2.6 -0.2
v 0.5 2.5 -0.2
v 0.5 2.6 -0.2
v 0.2 2.6 -0.5
v 0.2 2.7 -0.5
v 0.5 2.6 -0.5
v 0.5 2.7 -0.5
v 0 2 -0.6
v 0 2.6 -0.6
v 0.1 2 -0.6
v 0.1 2.6 -0.6
v 0.6 2 -0.6
v 0.6 2.6 -0.6
v 0.7 2 -0.6
v 0.7 2.6 -0.6
v 0 2 -0.1
v 0 2.6 -0.1
v 0.1 2 -0.1
v 0.1 2.6 -0.1
v 0.6 2 -0.1
v 0.6 2.6 -0.1
v 0.7 2 -0.1
v 0.7 2.6 -0.1
v 0.2 2.6 -0.2
v 0.2 2.7 -0.2
v 0.5 2.6 -0.2
v 0.5 2.7 -0.2
v 0.2 2.5 -0.5
v 0.2 2.6 -0.5
v 0.5 2.5 -0.5
v 0.5 2.6 -0.5
v 0 2 -0.7
v 0 2.6 -0.7
v 0 2.7 -0.7
v 0.1 2 -0.7
v 0.1 2.6 -0.7
v 0.6 2 -0.7
v 0.6 2.6 -0.7
v 0.7 2 -0.7
v 0.7 2.6 -0.7
v 0.7 2.7 -0.7
v 0 2 0
v 0.1 2 0
v 0.6 2 0
v 0.7 2 0
v 0 2 -0.1
v 0.1 2 -0.1
v 0.6 2 -0.1
v 0.7 2 -0.1
v 0 2 -0.6
v 0.1 2 -0.6
v 0.6 2 -0.6
v 0.7 2 -0.6
v 0 2 -0.7
v 0.1 2 -0.7
v 0.6 2 -0.7
v 0.7 2 -0.7
v 0.2 2.5 -0.2
v 0.5 2.5 -0.2
v 0.2 2.5 -0.5
v 0.5 2.5 -0.5
v 0.1 2.6 0
v 0.6 2.6 0
v 0 2.6 -0.1
v 0.1 2.6 -0.1
v 0.6 2.6 -0.1
v 0.7 2.6 -0.1
v 0.2 2.6 -0.2
v 0.5 2.6 -0.2
v 0.2 2.6 -0.5
v 0.5 2.6 -0.5
v 0 2.6 -0.6
v 0.1 2.6 -0.6
v 0.6 2.6 -0.6
v 0.7 2.6 -0.6
v 0.1 2.6 -0.7
v 0.6 2.6 -0.7
v 0.2 2.6 -0.2
v 0.5 2.6 -0.2
v 0.2 2.6 -0.5
v 0.5 2.6 -0.5
v 0 2.7 0
v 0.7 2.7 0
v 0.2 2.7 -0.2
v 0.5 2.7 -0.2
v 0.2 2.7 -0.5
v 0.5 2.7 -0.5
v 0 2.7 -0.7
v 0.7 2.7 -0.7

# faces
f 5/1/1 2/1/1 1/1/1
f 6/1/1 2/1/1 5/1/1
f 7/1/1 4/1/1 3/1/1
f 8/1/1 4/1/1 7/1/1
f 9/2/1 6/2/1 5/2/1
f 9/2/1 7/2/1 6/2/1
f 9/2/1 8/2/1 7/2/1
f 10/2/1 8/2/1 9/2/1
f 13/2/1 12/2/1 11/2/1
f 14/2/1 12/2/1 13/2/1
f 17/2/1 16/2/1 15/2/1
f 18/2/1 16/2/1 17/2/1
f 23/1/1 20/1/1 19/1/1
f 24/1/1 20/1/1 23/1/1
f 25/1/1 22/1/1 21/1/1
f 26/1/1 22/1/1 25/1/1
f 27/1/2 28/1/2 31/1/2
f 31/1/2 28/1/2 32/1/2
f 29/1/2 30/1/2 33/1/2
f 33/1/2 30/1/2 34/1/2
f 35/2/2 36/2/2 37/2/2
f 37/2/2 36/2/2 38/2/2
f 39/2/2 40/2/2 41/2/2
f 41/2/2 40/2/2 42/2/2
f 43/1/2 44/1/2 47/1/2
f 47/1/2 44/1/2 48/1/2
f 45/1/2 46/1/2 49/1/2
f 49/1/2 46/1/2 50/1/2
f 47/2/2 48/2/2 51/2/2
f 48/2/2 49/2/2 51/2/2
f 49/2/2 50/2/2 51/2/2
f 51/2/2 50/2/2 52/2/2
f 56/1/3 54/1/3 53/1/3
f 57/2/3 55/2/3 54/2/3
f 57/1/3 54/1/3 56/1/3
f 59/2/3 55/2/3 57/2/3
f 60/1/3 59/1/3 58/1/3
f 61/2/3 55/2/3 59/2/3
f 61/1/3 59/1/3 60/1/3
f 62/2/3 55/2/3 61/2/3
f 65/2/3 64/2/3 63/2/3
f 66/2/3 64/2/3 65/2/3
f 69/2/3 68/2/3 67/2/3
f 70/2/3 68/2/3 69/2/3
f 73/1/3 72/1/3 71/1/3
f 74/1/3 72/1/3 73/1/3
f 77/1/3 76/1/3 75/1/3
f 78/1/3 76/1/3 77/1/3
f 79/1/4 80/1/4 81/1/4
f 81/1/4 80/1/4 82/1/4
f 83/1/4 84/1/4 85/1/4
f 85/1/4 84/1/4 86/1/4
f 87/2/4 88/2/4 89/2/4
f 89/2/4 88/2/4 90/2/4
f 91/2/4 92/2/4 93/2/4
f 93/2/4 92/2/4 94/2/4
f 95/1/4 96/1/4 98/1/4
f 96/2/4 97/2/4 99/2/4
f 98/1/4 96/1/4 99/1/4
f 99/2/4 97/2/4 101/2/4
f 100/1/4 101/1/4 102/1/4
f 101/2/4 97/2/4 103/2/4
f 102/1/4 101/1/4 103/1/4
f 103/2/4 97/2/4 104/2/4
f 109/1/5 106/1/5 105/1/5
f 110/1/5 106/1/5 109/1/5
f 111/1/5 108/1/5 107/1/5
f 112/1/5 108/1/5 111/1/5
f 117/1/5 114/1/5 113/1/5
f 118/1/5 114/1/5 117/1/5
f 119/1/5 116/1/5 115/1/5
f 120/1/5 116/1/5 119/1/5
f 123/2/5 122/2/5 121/2/5
f 124/2/5 122/2/5 123/2/5
f 128/2/5 126/2/5 125/2/5
f 129/2/5 126/2/5 128/2/5
f 131/2/5 128/2/5 127/2/5
f 131/2/5 130/2/5 129/2/5
f 131/2/5 129/2/5 128/2/5
f 132/2/5 130/2/5 131/2/5
f 133/2/5 131/2/5 127/2/5
f 134/2/5 130/2/5 132/2/5
f 135/2/5 133/2/5 127/2/5
f 135/2/5 134/2/5 133/2/5
f 136/2/5 134/2/5 135/2/5
f 137/2/5 130/2/5 134/2/5
f 137/2/5 134/2/5 136/2/5
f 138/2/5 130/2/5 137/2/5
f 139/2/5 137/2/5 136/2/5
f 140/2/5 137/2/5 139/2/5
f 141/2/6 142/2/6 143/2/6
f 143/2/6 142/2/6 144/2/6
f 145/2/6 146/2/6 147/2/6
f 147/2/6 146/2/6 148/2/6
f 145/2/6 147/2/6 149/2/6
f 148/2/6 146/2/6 150/2/6
f 145/2/6 149/2/6 151/2/6
f 149/2/6 150/2/6 151/2/6
f 150/2/6 146/2/6 152/2/6
f 151/2/6 150/2/6 152/2/6
