# MagicaVoxel @ Ephtracy

# group
o 

# material
mtllib Market stail yellow.mtl
usemtl palette

# normals
vn -1 0 0
vn 1 0 0
vn 0 0 1
vn 0 0 -1
vn 0 -1 0
vn 0 1 0

# texcoords
vt 0.0449219 0.5
vt 0.537109 0.5

# verts
v 0 2 0
v 0 2 -0.1
v 0 2 -0.6
v 0 2 -0.7
v 0 2.6 0
v 0 2.6 -0.1
v 0 2.6 -0.6
v 0 2.6 -0.7
v 0 2.7 0
v 0 2.7 -0.7
v 0.2 2.5 -0.2
v 0.2 2.5 -0.5
v 0.2 2.6 -0.2
v 0.2 2.6 -0.5
v 0.5 2.6 -0.2
v 0.5 2.6 -0.5
v 0.5 2.7 -0.2
v 0.5 2.7 -0.5
v 0.6 2 0
v 0.6 2 -0.1
v 0.6 2 -0.6
v 0.6 2 -0.7
v 0.6 2.6 0
v 0.6 2.6 -0.1
v 0.6 2.6 -0.6
v 0.6 2.6 -0.7
v 0.1 2 0
v 0.1 2 -0.1
v 0.1 2 -0.6
v 0.1 2 -0.7
v 0.1 2.6 0
v 0.1 2.6 -0.1
v 0.1 2.6 -0.6
v 0.1 2.6 -0.7
v 0.2 2.6 -0.2
v 0.2 2.6 -0.5
v 0.2 2.7 -0.2
v 0.2 2.7 -0.5
v 0.5 2.5 -0.2
v 0.5 2.5 -0.5
v 0.5 2.6 -0.2
v 0.5 2.6 -0.5
v 0.7 2 0
v 0.7 2 -0.1
v 0.7 2 -0.6
v 0.7 2 -0.7
v 0.7 2.6 0
v 0.7 2.6 -0.1
v 0.7 2.6 -0.6
v 0.7 2.6 -0.7
v 0.7 2.7 0
v 0.7 2.7 -0.7
v 0 2 0
v 0 2.6 0
v 0 2.7 0
v 0.1 2 0
v 0.1 2.6 0
v 0.6 2 0
v 0.6 2.6 0
v 0.7 2 0
v 0.7 2.6 0
v 0.7 2.7 0
v 0.2 2.5 -0.2
v 0.2 2.6 -0.2
v 0.5 2.5 -0.2
v 0.5 2.6 -0.2
v 0.2 2.6 -0.5
v 0.2 2.7 -0.5
v 0.5 2.6 -0.5
v 0.5 2.7 -0.5
v 0 2 -0.6
v 0 2.6 -0.6
v 0.1 2 -0.6
v 0.1 2.6 -0.6
v 0.6 2 -0.6
v 0.6 2.6 -0.6
v 0.7 2 -0.6
v 0.7 2.6 -0.6
v 0 2 -0.1
v 0 2.6 -0.1
v 0.1 2 -0.1
v 0.1 2.6 -0.1
v 0.6 2 -0.1
v 0.6 2.6 -0.1
v 0.7 2 -0.1
v 0.7 2.6 -0.1
v 0.2 2.6 -0.2
v 0.2 2.7 -0.2
v 0.5 2.6 -0.2
v 0.5 2.7 -0.2
v 0.2 2.5 -0.5
v 0.2 2.6 -0.5
v 0.5 2.5 -0.5
v 0.5 2.6 -0.5
v 0 2 -0.7
v 0 2.6 -0.7
v 0 2.7 -0.7
v 0.1 2 -0.7
v 0.1 2.6 -0.7
v 0.6 2 -0.7
v 0.6 2.6 -0.7
v 0.7 2 -0.7
v 0.7 2.6 -0.7
v 0.7 2.7 -0.7
v 0 2 0
v 0.1 2 0
v 0.6 2 0
v 0.7 2 0
v 0 2 -0.1
v 0.1 2 -0.1
v 0.6 2 -0.1
v 0.7 2 -0.1
v 0 2 -0.6
v 0.1 2 -0.6
v 0.6 2 -0.6
v 0.7 2 -0.6
v 0 2 -0.7
v 0.1 2 -0.7
v 0.6 2 -0.7
v 0.7 2 -0.7
v 0.2 2.5 -0.2
v 0.5 2.5 -0.2
v 0.2 2.5 -0.5
v 0.5 2.5 -0.5
v 0.1 2.6 0
v 0.6 2.6 0
v 0 2.6 -0.1
v 0.1 2.6 -0.1
v 0.6 2.6 -0.1
v 0.7 2.6 -0.1
v 0.2 2.6 -0.2
v 0.5 2.6 -0.2
v 0.2 2.6 -0.5
v 0.5 2.6 -0.5
v 0 2.6 -0.6
v 0.1 2.6 -0.6
v 0.6 2.6 -0.6
v 0.7 2.6 -0.6
v 0.1 2.6 -0.7
v 0.6 2.6 -0.7
v 0.2 2.6 -0.2
v 0.5 2.6 -0.2
v 0.2 2.6 -0.5
v 0.5 2.6 -0.5
v 0 2.7 0
v 0.7 2.7 0
v 0.2 2.7 -0.2
v 0.5 2.7 -0.2
v 0.2 2.7 -0.5
v 0.5 2.7 -0.5
v 0 2.7 -0.7
v 0.7 2.7 -0.7

# faces
f 5/2/1 2/2/1 1/2/1
f 6/2/1 2/2/1 5/2/1
f 7/2/1 4/2/1 3/2/1
f 8/2/1 4/2/1 7/2/1
f 9/1/1 6/1/1 5/1/1
f 9/1/1 7/1/1 6/1/1
f 9/1/1 8/1/1 7/1/1
f 10/1/1 8/1/1 9/1/1
f 13/1/1 12/1/1 11/1/1
f 14/1/1 12/1/1 13/1/1
f 17/1/1 16/1/1 15/1/1
f 18/1/1 16/1/1 17/1/1
f 23/2/1 20/2/1 19/2/1
f 24/2/1 20/2/1 23/2/1
f 25/2/1 22/2/1 21/2/1
f 26/2/1 22/2/1 25/2/1
f 27/2/2 28/2/2 31/2/2
f 31/2/2 28/2/2 32/2/2
f 29/2/2 30/2/2 33/2/2
f 33/2/2 30/2/2 34/2/2
f 35/1/2 36/1/2 37/1/2
f 37/1/2 36/1/2 38/1/2
f 39/1/2 40/1/2 41/1/2
f 41/1/2 40/1/2 42/1/2
f 43/2/2 44/2/2 47/2/2
f 47/2/2 44/2/2 48/2/2
f 45/2/2 46/2/2 49/2/2
f 49/2/2 46/2/2 50/2/2
f 47/1/2 48/1/2 51/1/2
f 48/1/2 49/1/2 51/1/2
f 49/1/2 50/1/2 51/1/2
f 51/1/2 50/1/2 52/1/2
f 56/2/3 54/2/3 53/2/3
f 57/1/3 55/1/3 54/1/3
f 57/2/3 54/2/3 56/2/3
f 59/1/3 55/1/3 57/1/3
f 60/2/3 59/2/3 58/2/3
f 61/1/3 55/1/3 59/1/3
f 61/2/3 59/2/3 60/2/3
f 62/1/3 55/1/3 61/1/3
f 65/1/3 64/1/3 63/1/3
f 66/1/3 64/1/3 65/1/3
f 69/1/3 68/1/3 67/1/3
f 70/1/3 68/1/3 69/1/3
f 73/2/3 72/2/3 71/2/3
f 74/2/3 72/2/3 73/2/3
f 77/2/3 76/2/3 75/2/3
f 78/2/3 76/2/3 77/2/3
f 79/2/4 80/2/4 81/2/4
f 81/2/4 80/2/4 82/2/4
f 83/2/4 84/2/4 85/2/4
f 85/2/4 84/2/4 86/2/4
f 87/1/4 88/1/4 89/1/4
f 89/1/4 88/1/4 90/1/4
f 91/1/4 92/1/4 93/1/4
f 93/1/4 92/1/4 94/1/4
f 95/2/4 96/2/4 98/2/4
f 96/1/4 97/1/4 99/1/4
f 98/2/4 96/2/4 99/2/4
f 99/1/4 97/1/4 101/1/4
f 100/2/4 101/2/4 102/2/4
f 101/1/4 97/1/4 103/1/4
f 102/2/4 101/2/4 103/2/4
f 103/1/4 97/1/4 104/1/4
f 109/2/5 106/2/5 105/2/5
f 110/2/5 106/2/5 109/2/5
f 111/2/5 108/2/5 107/2/5
f 112/2/5 108/2/5 111/2/5
f 117/2/5 114/2/5 113/2/5
f 118/2/5 114/2/5 117/2/5
f 119/2/5 116/2/5 115/2/5
f 120/2/5 116/2/5 119/2/5
f 123/1/5 122/1/5 121/1/5
f 124/1/5 122/1/5 123/1/5
f 128/1/5 126/1/5 125/1/5
f 129/1/5 126/1/5 128/1/5
f 131/1/5 128/1/5 127/1/5
f 131/1/5 130/1/5 129/1/5
f 131/1/5 129/1/5 128/1/5
f 132/1/5 130/1/5 131/1/5
f 133/1/5 131/1/5 127/1/5
f 134/1/5 130/1/5 132/1/5
f 135/1/5 133/1/5 127/1/5
f 135/1/5 134/1/5 133/1/5
f 136/1/5 134/1/5 135/1/5
f 137/1/5 130/1/5 134/1/5
f 137/1/5 134/1/5 136/1/5
f 138/1/5 130/1/5 137/1/5
f 139/1/5 137/1/5 136/1/5
f 140/1/5 137/1/5 139/1/5
f 141/1/6 142/1/6 143/1/6
f 143/1/6 142/1/6 144/1/6
f 145/1/6 146/1/6 147/1/6
f 147/1/6 146/1/6 148/1/6
f 145/1/6 147/1/6 149/1/6
f 148/1/6 146/1/6 150/1/6
f 145/1/6 149/1/6 151/1/6
f 149/1/6 150/1/6 151/1/6
f 150/1/6 146/1/6 152/1/6
f 151/1/6 150/1/6 152/1/6
