# MagicaVoxel @ Ephtracy

# group
g Well-0

# material
mtllib Well-0.mtl
usemtl palette

# normals
vn -1 0 0
vn 1 0 0
vn 0 0 1
vn 0 0 -1
vn 0 -1 0
vn 0 1 0

# texcoords
vt 0.00976563 0.5
vt 0.337891 0.5
vt 0.423828 0.5
vt 0.447266 0.5

# verts
v -5.5 0 17.5
v -5.5 0 -17.5
v -5.5 9 17.5
v -5.5 9 -17.5
v 1.5 1 15.5
v 1.5 1 14.5
v 1.5 1 11.5
v 1.5 1 10.5
v 1.5 8 15.5
v 1.5 8 14.5
v 1.5 8 11.5
v 1.5 8 10.5
v 1.5 9 15.5
v 1.5 9 14.5
v 1.5 9 11.5
v 1.5 9 10.5
v 2.5 1 14.5
v 2.5 1 11.5
v 2.5 8 14.5
v 2.5 8 11.5
v 2.5 9 14.5
v 2.5 9 11.5
v -2.5 1 14.5
v -2.5 1 11.5
v -2.5 8 14.5
v -2.5 8 11.5
v -2.5 9 14.5
v -2.5 9 11.5
v -1.5 1 15.5
v -1.5 1 14.5
v -1.5 1 11.5
v -1.5 1 10.5
v -1.5 8 15.5
v -1.5 8 14.5
v -1.5 8 11.5
v -1.5 8 10.5
v -1.5 9 15.5
v -1.5 9 14.5
v -1.5 9 11.5
v -1.5 9 10.5
v 5.5 0 17.5
v 5.5 0 -17.5
v 5.5 4 17.5
v 5.5 4 -1.5
v 5.5 5 17.5
v 5.5 5 -1.5
v 5.5 9 17.5
v 5.5 9 -17.5
v -5.5 0 17.5
v -5.5 9 17.5
v 3.5 4 17.5
v 3.5 5 17.5
v 5.5 0 17.5
v 5.5 4 17.5
v 5.5 5 17.5
v 5.5 9 17.5
v -2.5 1 11.5
v -2.5 8 11.5
v -2.5 9 11.5
v -1.5 1 11.5
v -1.5 8 11.5
v -1.5 9 11.5
v 1.5 1 11.5
v 1.5 8 11.5
v 1.5 9 11.5
v 2.5 1 11.5
v 2.5 8 11.5
v 2.5 9 11.5
v -1.5 1 10.5
v -1.5 8 10.5
v -1.5 9 10.5
v 1.5 1 10.5
v 1.5 8 10.5
v 1.5 9 10.5
v -1.5 1 15.5
v -1.5 8 15.5
v -1.5 9 15.5
v 1.5 1 15.5
v 1.5 8 15.5
v 1.5 9 15.5
v -2.5 1 14.5
v -2.5 8 14.5
v -2.5 9 14.5
v -1.5 1 14.5
v -1.5 8 14.5
v -1.5 9 14.5
v 1.5 1 14.5
v 1.5 8 14.5
v 1.5 9 14.5
v 2.5 1 14.5
v 2.5 8 14.5
v 2.5 9 14.5
v -5.5 0 -17.5
v -5.5 9 -17.5
v 5.5 0 -17.5
v 5.5 9 -17.5
v -5.5 0 17.5
v 5.5 0 17.5
v -1.5 0 15.5
v 1.5 0 15.5
v -2.5 0 14.5
v -1.5 0 14.5
v 1.5 0 14.5
v 2.5 0 14.5
v -2.5 0 11.5
v -1.5 0 11.5
v 1.5 0 11.5
v 2.5 0 11.5
v -1.5 0 10.5
v 1.5 0 10.5
v -5.5 0 -17.5
v 5.5 0 -17.5
v -1.5 1 15.5
v 1.5 1 15.5
v -2.5 1 14.5
v -1.5 1 14.5
v 1.5 1 14.5
v 2.5 1 14.5
v -2.5 1 11.5
v -1.5 1 11.5
v 1.5 1 11.5
v 2.5 1 11.5
v -1.5 1 10.5
v 1.5 1 10.5
v -5.5 9 17.5
v 5.5 9 17.5
v -2.5 9 16.5
v 2.5 9 16.5
v -3.5 9 15.5
v -2.5 9 15.5
v -1.5 9 15.5
v 1.5 9 15.5
v 2.5 9 15.5
v 3.5 9 15.5
v -2.5 9 14.5
v -1.5 9 14.5
v 1.5 9 14.5
v 2.5 9 14.5
v -2.5 9 11.5
v -1.5 9 11.5
v 1.5 9 11.5
v 2.5 9 11.5
v -3.5 9 10.5
v -2.5 9 10.5
v -1.5 9 10.5
v 1.5 9 10.5
v 2.5 9 10.5
v 3.5 9 10.5
v -2.5 9 9.5
v 2.5 9 9.5
v -5.5 9 -17.5
v 5.5 9 -17.5

# faces
f 3/1/1 2/1/1 1/1/1
f 4/1/1 2/1/1 3/1/1
f 9/1/1 6/1/1 5/1/1
f 10/1/1 6/1/1 9/1/1
f 11/1/1 8/1/1 7/1/1
f 12/1/1 8/1/1 11/1/1
f 13/2/1 10/2/1 9/2/1
f 14/2/1 10/2/1 13/2/1
f 15/2/1 12/2/1 11/2/1
f 16/2/1 12/2/1 15/2/1
f 19/1/1 18/1/1 17/1/1
f 20/1/1 18/1/1 19/1/1
f 21/2/1 20/2/1 19/2/1
f 22/2/1 20/2/1 21/2/1
f 23/1/2 24/1/2 25/1/2
f 25/1/2 24/1/2 26/1/2
f 25/2/2 26/2/2 27/2/2
f 27/2/2 26/2/2 28/2/2
f 29/1/2 30/1/2 33/1/2
f 33/1/2 30/1/2 34/1/2
f 31/1/2 32/1/2 35/1/2
f 35/1/2 32/1/2 36/1/2
f 33/2/2 34/2/2 37/2/2
f 37/2/2 34/2/2 38/2/2
f 35/2/2 36/2/2 39/2/2
f 39/2/2 36/2/2 40/2/2
f 41/1/2 42/1/2 43/1/2
f 43/1/2 42/1/2 44/1/2
f 43/4/2 44/4/2 45/4/2
f 44/1/2 42/1/2 46/1/2
f 45/4/2 44/4/2 46/4/2
f 45/1/2 46/1/2 47/1/2
f 46/1/2 42/1/2 48/1/2
f 47/1/2 46/1/2 48/1/2
f 51/1/3 50/1/3 49/1/3
f 52/1/3 50/1/3 51/1/3
f 53/1/3 51/1/3 49/1/3
f 54/4/3 52/4/3 51/4/3
f 54/1/3 51/1/3 53/1/3
f 55/1/3 50/1/3 52/1/3
f 55/4/3 52/4/3 54/4/3
f 56/1/3 50/1/3 55/1/3
f 60/1/3 58/1/3 57/1/3
f 61/2/3 59/2/3 58/2/3
f 61/1/3 58/1/3 60/1/3
f 62/2/3 59/2/3 61/2/3
f 66/1/3 64/1/3 63/1/3
f 67/2/3 65/2/3 64/2/3
f 67/1/3 64/1/3 66/1/3
f 68/2/3 65/2/3 67/2/3
f 72/1/3 70/1/3 69/1/3
f 73/2/3 71/2/3 70/2/3
f 73/1/3 70/1/3 72/1/3
f 74/2/3 71/2/3 73/2/3
f 75/1/4 76/1/4 78/1/4
f 76/2/4 77/2/4 79/2/4
f 78/1/4 76/1/4 79/1/4
f 79/2/4 77/2/4 80/2/4
f 81/1/4 82/1/4 84/1/4
f 82/2/4 83/2/4 85/2/4
f 84/1/4 82/1/4 85/1/4
f 85/2/4 83/2/4 86/2/4
f 87/1/4 88/1/4 90/1/4
f 88/2/4 89/2/4 91/2/4
f 90/1/4 88/1/4 91/1/4
f 91/2/4 89/2/4 92/2/4
f 93/1/4 94/1/4 95/1/4
f 95/1/4 94/1/4 96/1/4
f 99/1/5 98/1/5 97/1/5
f 100/1/5 98/1/5 99/1/5
f 101/1/5 99/1/5 97/1/5
f 102/3/5 100/3/5 99/3/5
f 102/1/5 99/1/5 101/1/5
f 103/1/5 98/1/5 100/1/5
f 103/3/5 100/3/5 102/3/5
f 104/1/5 98/1/5 103/1/5
f 105/3/5 102/3/5 101/3/5
f 105/1/5 101/1/5 97/1/5
f 105/3/5 104/3/5 103/3/5
f 105/3/5 103/3/5 102/3/5
f 106/3/5 104/3/5 105/3/5
f 107/3/5 104/3/5 106/3/5
f 108/1/5 98/1/5 104/1/5
f 108/3/5 104/3/5 107/3/5
f 109/3/5 107/3/5 106/3/5
f 109/1/5 106/1/5 105/1/5
f 110/1/5 108/1/5 107/1/5
f 110/3/5 107/3/5 109/3/5
f 111/1/5 105/1/5 97/1/5
f 111/1/5 109/1/5 105/1/5
f 111/1/5 110/1/5 109/1/5
f 112/1/5 98/1/5 108/1/5
f 112/1/5 110/1/5 111/1/5
f 112/1/5 108/1/5 110/1/5
f 113/3/6 114/3/6 116/3/6
f 116/3/6 114/3/6 117/3/6
f 115/3/6 116/3/6 119/3/6
f 117/3/6 118/3/6 119/3/6
f 116/3/6 117/3/6 119/3/6
f 119/3/6 118/3/6 120/3/6
f 120/3/6 118/3/6 121/3/6
f 121/3/6 118/3/6 122/3/6
f 120/3/6 121/3/6 123/3/6
f 123/3/6 121/3/6 124/3/6
f 125/1/6 126/1/6 127/1/6
f 127/1/6 126/1/6 128/1/6
f 125/1/6 127/1/6 129/1/6
f 127/2/6 128/2/6 130/2/6
f 129/1/6 127/1/6 130/1/6
f 130/2/6 128/2/6 131/2/6
f 131/2/6 128/2/6 132/2/6
f 128/1/6 126/1/6 133/1/6
f 132/2/6 128/2/6 133/2/6
f 133/1/6 126/1/6 134/1/6
f 129/2/6 130/2/6 135/2/6
f 130/2/6 131/2/6 135/2/6
f 135/2/6 131/2/6 136/2/6
f 133/2/6 134/2/6 137/2/6
f 132/2/6 133/2/6 137/2/6
f 137/2/6 134/2/6 138/2/6
f 129/2/6 135/2/6 139/2/6
f 138/2/6 134/2/6 142/2/6
f 125/1/6 129/1/6 143/1/6
f 139/2/6 140/2/6 143/2/6
f 129/2/6 139/2/6 143/2/6
f 143/2/6 140/2/6 144/2/6
f 144/2/6 140/2/6 145/2/6
f 141/2/6 142/2/6 146/2/6
f 142/2/6 134/2/6 147/2/6
f 146/2/6 142/2/6 147/2/6
f 134/1/6 126/1/6 148/1/6
f 147/2/6 134/2/6 148/2/6
f 146/2/6 147/2/6 149/2/6
f 144/2/6 145/2/6 149/2/6
f 145/2/6 146/2/6 149/2/6
f 143/1/6 144/1/6 149/1/6
f 147/1/6 148/1/6 150/1/6
f 149/2/6 147/2/6 150/2/6
f 143/1/6 149/1/6 151/1/6
f 125/1/6 143/1/6 151/1/6
f 149/1/6 150/1/6 151/1/6
f 148/1/6 126/1/6 152/1/6
f 151/1/6 150/1/6 152/1/6
f 150/1/6 148/1/6 152/1/6
