# MagicaVoxel @ Ephtracy

# group
g Pyramid-23

# material
mtllib Pyramid-23.mtl
usemtl palette

# normals
vn -1 0 0
vn 1 0 0
vn 0 0 1
vn 0 0 -1
vn 0 -1 0
vn 0 1 0

# texcoords
vt 0.341797 0.5

# verts
v -36 0 36
v -36 0 -36
v -36 1 36
v -36 1 -36
v -35 1 35
v -35 1 -36
v -35 2 35
v -35 2 -36
v -34 2 34
v -34 2 -36
v -34 3 34
v -34 3 -36
v -33 3 33
v -33 3 -36
v -33 4 33
v -33 4 -36
v -32 4 32
v -32 4 -36
v -32 5 32
v -32 5 -36
v -31 5 31
v -31 5 -36
v -31 6 31
v -31 6 -36
v -26 1 24
v -26 1 -31
v -26 6 24
v -26 6 -31
v -21 1 19
v -21 1 -35
v -21 6 19
v -21 6 -35
v -16 1 23
v -16 1 -31
v -16 6 23
v -16 6 -31
v -11 1 19
v -11 1 -25
v -11 6 19
v -11 6 -25
v -6 1 -19
v -6 1 -29
v -6 6 -19
v -6 6 -29
v -1 1 23
v -1 1 -35
v -1 6 23
v -1 6 -35
v 5 1 10
v 5 1 -31
v 5 6 10
v 5 6 -31
v 15 1 5
v 15 1 -35
v 15 6 5
v 15 6 -35
v 20 1 -2
v 20 1 -36
v 20 6 -2
v 20 6 -36
v 25 1 -17
v 25 1 -36
v 25 6 -17
v 25 6 -36
v 30 1 -22
v 30 1 -36
v 30 6 -22
v 30 6 -36
v 35 1 -27
v 35 1 -36
v 35 6 -27
v 35 6 -36
v -30 1 29
v -30 1 -35
v -30 6 29
v -30 6 -35
v -25 1 23
v -25 1 -31
v -25 6 23
v -25 6 -31
v -20 1 19
v -20 1 -35
v -20 6 19
v -20 6 -35
v -15 1 23
v -15 1 -29
v -15 6 23
v -15 6 -29
v -10 1 -19
v -10 1 -25
v -10 6 -19
v -10 6 -25
v -5 1 19
v -5 1 -31
v -5 6 19
v -5 6 -31
v 1 1 14
v 1 1 -35
v 1 6 14
v 1 6 -35
v 11 1 9
v 11 1 -31
v 11 6 9
v 11 6 -31
v 16 1 2
v 16 1 -36
v 16 6 2
v 16 6 -36
v 21 1 -13
v 21 1 -36
v 21 6 -13
v 21 6 -36
v 26 1 -18
v 26 1 -36
v 26 6 -18
v 26 6 -36
v 31 1 -23
v 31 1 -36
v 31 6 -23
v 31 6 -36
v 36 0 36
v 36 0 -36
v 36 1 36
v 36 1 35
v 36 1 29
v 36 1 24
v 36 1 14
v 36 1 10
v 36 1 9
v 36 1 5
v 36 1 2
v 36 1 -2
v 36 1 -13
v 36 1 -17
v 36 1 -18
v 36 1 -22
v 36 1 -23
v 36 1 -27
v 36 2 35
v 36 2 34
v 36 3 34
v 36 3 33
v 36 4 33
v 36 4 32
v 36 5 32
v 36 5 31
v 36 6 31
v 36 6 29
v 36 6 24
v 36 6 14
v 36 6 10
v 36 6 9
v 36 6 5
v 36 6 2
v 36 6 -2
v 36 6 -13
v 36 6 -17
v 36 6 -18
v 36 6 -22
v 36 6 -23
v 36 6 -27
v 36 6 -36
v -36 0 36
v -36 1 36
v 36 0 36
v 36 1 36
v -35 1 35
v -35 2 35
v 36 1 35
v 36 2 35
v -34 2 34
v -34 3 34
v 36 2 34
v 36 3 34
v -33 3 33
v -33 4 33
v 36 3 33
v 36 4 33
v -32 4 32
v -32 5 32
v 36 4 32
v 36 5 32
v -31 5 31
v -31 6 31
v 36 5 31
v 36 6 31
v -26 1 24
v -26 6 24
v 36 1 24
v 36 6 24
v -21 1 19
v -21 6 19
v -20 1 19
v -20 6 19
v -11 1 19
v -11 6 19
v -5 1 19
v -5 6 19
v 5 1 10
v 5 6 10
v 36 1 10
v 36 6 10
v 15 1 5
v 15 6 5
v 36 1 5
v 36 6 5
v 20 1 -2
v 20 6 -2
v 36 1 -2
v 36 6 -2
v 25 1 -17
v 25 6 -17
v 36 1 -17
v 36 6 -17
v 30 1 -22
v 30 6 -22
v 36 1 -22
v 36 6 -22
v 35 1 -27
v 35 6 -27
v 36 1 -27
v 36 6 -27
v -15 1 -29
v -15 6 -29
v -6 1 -29
v -6 6 -29
v -30 1 -35
v -30 6 -35
v -21 1 -35
v -21 6 -35
v -20 1 -35
v -20 6 -35
v -1 1 -35
v -1 6 -35
v 1 1 -35
v 1 6 -35
v 15 1 -35
v 15 6 -35
v -30 1 29
v -30 6 29
v 36 1 29
v 36 6 29
v -25 1 23
v -25 6 23
v -16 1 23
v -16 6 23
v -15 1 23
v -15 6 23
v -1 1 23
v -1 6 23
v 1 1 14
v 1 6 14
v 36 1 14
v 36 6 14
v 11 1 9
v 11 6 9
v 36 1 9
v 36 6 9
v 16 1 2
v 16 6 2
v 36 1 2
v 36 6 2
v 21 1 -13
v 21 6 -13
v 36 1 -13
v 36 6 -13
v 26 1 -18
v 26 6 -18
v 36 1 -18
v 36 6 -18
v -10 1 -19
v -10 6 -19
v -6 1 -19
v -6 6 -19
v 31 1 -23
v 31 6 -23
v 36 1 -23
v 36 6 -23
v -11 1 -25
v -11 6 -25
v -10 1 -25
v -10 6 -25
v -26 1 -31
v -26 6 -31
v -25 1 -31
v -25 6 -31
v -16 1 -31
v -16 6 -31
v -5 1 -31
v -5 6 -31
v 5 1 -31
v 5 6 -31
v 11 1 -31
v 11 6 -31
v -36 0 -36
v -36 1 -36
v -35 1 -36
v -35 2 -36
v -34 2 -36
v -34 3 -36
v -33 3 -36
v -33 4 -36
v -32 4 -36
v -32 5 -36
v -31 5 -36
v -31 6 -36
v 16 1 -36
v 16 6 -36
v 20 1 -36
v 20 6 -36
v 21 1 -36
v 21 6 -36
v 25 1 -36
v 25 6 -36
v 26 1 -36
v 26 6 -36
v 30 1 -36
v 30 6 -36
v 31 1 -36
v 31 6 -36
v 35 1 -36
v 35 6 -36
v 36 0 -36
v 36 6 -36
v -36 0 36
v 36 0 36
v -36 0 -36
v 36 0 -36
v -36 1 36
v 36 1 36
v -35 1 35
v 36 1 35
v -30 1 29
v 36 1 29
v -26 1 24
v 36 1 24
v -25 1 23
v -16 1 23
v -15 1 23
v -1 1 23
v -21 1 19
v -20 1 19
v -11 1 19
v -5 1 19
v 1 1 14
v 36 1 14
v 5 1 10
v 36 1 10
v 11 1 9
v 36 1 9
v 15 1 5
v 36 1 5
v 16 1 2
v 36 1 2
v 20 1 -2
v 36 1 -2
v 21 1 -13
v 36 1 -13
v 25 1 -17
v 36 1 -17
v 26 1 -18
v 36 1 -18
v -10 1 -19
v -6 1 -19
v 30 1 -22
v 36 1 -22
v 31 1 -23
v 36 1 -23
v -11 1 -25
v -10 1 -25
v 35 1 -27
v 36 1 -27
v -15 1 -29
v -6 1 -29
v -26 1 -31
v -25 1 -31
v -16 1 -31
v -5 1 -31
v 5 1 -31
v 11 1 -31
v -30 1 -35
v -21 1 -35
v -20 1 -35
v -1 1 -35
v 1 1 -35
v 15 1 -35
v -36 1 -36
v -35 1 -36
v 16 1 -36
v 20 1 -36
v 21 1 -36
v 25 1 -36
v 26 1 -36
v 30 1 -36
v 31 1 -36
v 35 1 -36
v -35 2 35
v 36 2 35
v -34 2 34
v 36 2 34
v -35 2 -36
v -34 2 -36
v -34 3 34
v 36 3 34
v -33 3 33
v 36 3 33
v -34 3 -36
v -33 3 -36
v -33 4 33
v 36 4 33
v -32 4 32
v 36 4 32
v -33 4 -36
v -32 4 -36
v -32 5 32
v 36 5 32
v -31 5 31
v 36 5 31
v -32 5 -36
v -31 5 -36
v -31 6 31
v 36 6 31
v -30 6 29
v 36 6 29
v -26 6 24
v 36 6 24
v -25 6 23
v -16 6 23
v -15 6 23
v -1 6 23
v -21 6 19
v -20 6 19
v -11 6 19
v -5 6 19
v 1 6 14
v 36 6 14
v 5 6 10
v 36 6 10
v 11 6 9
v 36 6 9
v 15 6 5
v 36 6 5
v 16 6 2
v 36 6 2
v 20 6 -2
v 36 6 -2
v 21 6 -13
v 36 6 -13
v 25 6 -17
v 36 6 -17
v 26 6 -18
v 36 6 -18
v -10 6 -19
v -6 6 -19
v 30 6 -22
v 36 6 -22
v 31 6 -23
v 36 6 -23
v -11 6 -25
v -10 6 -25
v 35 6 -27
v 36 6 -27
v -15 6 -29
v -6 6 -29
v -26 6 -31
v -25 6 -31
v -16 6 -31
v -5 6 -31
v 5 6 -31
v 11 6 -31
v -30 6 -35
v -21 6 -35
v -20 6 -35
v -1 6 -35
v 1 6 -35
v 15 6 -35
v -31 6 -36
v 16 6 -36
v 20 6 -36
v 21 6 -36
v 25 6 -36
v 26 6 -36
v 30 6 -36
v 31 6 -36
v 35 6 -36
v 36 6 -36

# faces
f 3/1/1 2/1/1 1/1/1
f 4/1/1 2/1/1 3/1/1
f 7/1/1 6/1/1 5/1/1
f 8/1/1 6/1/1 7/1/1
f 11/1/1 10/1/1 9/1/1
f 12/1/1 10/1/1 11/1/1
f 15/1/1 14/1/1 13/1/1
f 16/1/1 14/1/1 15/1/1
f 19/1/1 18/1/1 17/1/1
f 20/1/1 18/1/1 19/1/1
f 23/1/1 22/1/1 21/1/1
f 24/1/1 22/1/1 23/1/1
f 27/1/1 26/1/1 25/1/1
f 28/1/1 26/1/1 27/1/1
f 31/1/1 30/1/1 29/1/1
f 32/1/1 30/1/1 31/1/1
f 35/1/1 34/1/1 33/1/1
f 36/1/1 34/1/1 35/1/1
f 39/1/1 38/1/1 37/1/1
f 40/1/1 38/1/1 39/1/1
f 43/1/1 42/1/1 41/1/1
f 44/1/1 42/1/1 43/1/1
f 47/1/1 46/1/1 45/1/1
f 48/1/1 46/1/1 47/1/1
f 51/1/1 50/1/1 49/1/1
f 52/1/1 50/1/1 51/1/1
f 55/1/1 54/1/1 53/1/1
f 56/1/1 54/1/1 55/1/1
f 59/1/1 58/1/1 57/1/1
f 60/1/1 58/1/1 59/1/1
f 63/1/1 62/1/1 61/1/1
f 64/1/1 62/1/1 63/1/1
f 67/1/1 66/1/1 65/1/1
f 68/1/1 66/1/1 67/1/1
f 71/1/1 70/1/1 69/1/1
f 72/1/1 70/1/1 71/1/1
f 73/1/2 74/1/2 75/1/2
f 75/1/2 74/1/2 76/1/2
f 77/1/2 78/1/2 79/1/2
f 79/1/2 78/1/2 80/1/2
f 81/1/2 82/1/2 83/1/2
f 83/1/2 82/1/2 84/1/2
f 85/1/2 86/1/2 87/1/2
f 87/1/2 86/1/2 88/1/2
f 89/1/2 90/1/2 91/1/2
f 91/1/2 90/1/2 92/1/2
f 93/1/2 94/1/2 95/1/2
f 95/1/2 94/1/2 96/1/2
f 97/1/2 98/1/2 99/1/2
f 99/1/2 98/1/2 100/1/2
f 101/1/2 102/1/2 103/1/2
f 103/1/2 102/1/2 104/1/2
f 105/1/2 106/1/2 107/1/2
f 107/1/2 106/1/2 108/1/2
f 109/1/2 110/1/2 111/1/2
f 111/1/2 110/1/2 112/1/2
f 113/1/2 114/1/2 115/1/2
f 115/1/2 114/1/2 116/1/2
f 117/1/2 118/1/2 119/1/2
f 119/1/2 118/1/2 120/1/2
f 121/1/2 122/1/2 123/1/2
f 123/1/2 122/1/2 124/1/2
f 124/1/2 122/1/2 125/1/2
f 125/1/2 122/1/2 126/1/2
f 126/1/2 122/1/2 127/1/2
f 127/1/2 122/1/2 128/1/2
f 128/1/2 122/1/2 129/1/2
f 129/1/2 122/1/2 130/1/2
f 130/1/2 122/1/2 131/1/2
f 131/1/2 122/1/2 132/1/2
f 132/1/2 122/1/2 133/1/2
f 133/1/2 122/1/2 134/1/2
f 134/1/2 122/1/2 135/1/2
f 135/1/2 122/1/2 136/1/2
f 136/1/2 122/1/2 137/1/2
f 137/1/2 122/1/2 138/1/2
f 124/1/2 125/1/2 139/1/2
f 139/1/2 125/1/2 140/1/2
f 140/1/2 125/1/2 141/1/2
f 141/1/2 125/1/2 142/1/2
f 142/1/2 125/1/2 143/1/2
f 143/1/2 125/1/2 144/1/2
f 144/1/2 125/1/2 145/1/2
f 145/1/2 125/1/2 146/1/2
f 146/1/2 125/1/2 147/1/2
f 147/1/2 125/1/2 148/1/2
f 126/1/2 127/1/2 149/1/2
f 149/1/2 127/1/2 150/1/2
f 128/1/2 129/1/2 151/1/2
f 151/1/2 129/1/2 152/1/2
f 130/1/2 131/1/2 153/1/2
f 153/1/2 131/1/2 154/1/2
f 132/1/2 133/1/2 155/1/2
f 155/1/2 133/1/2 156/1/2
f 134/1/2 135/1/2 157/1/2
f 157/1/2 135/1/2 158/1/2
f 136/1/2 137/1/2 159/1/2
f 159/1/2 137/1/2 160/1/2
f 138/1/2 122/1/2 161/1/2
f 161/1/2 122/1/2 162/1/2
f 165/1/3 164/1/3 163/1/3
f 166/1/3 164/1/3 165/1/3
f 169/1/3 168/1/3 167/1/3
f 170/1/3 168/1/3 169/1/3
f 173/1/3 172/1/3 171/1/3
f 174/1/3 172/1/3 173/1/3
f 177/1/3 176/1/3 175/1/3
f 178/1/3 176/1/3 177/1/3
f 181/1/3 180/1/3 179/1/3
f 182/1/3 180/1/3 181/1/3
f 185/1/3 184/1/3 183/1/3
f 186/1/3 184/1/3 185/1/3
f 189/1/3 188/1/3 187/1/3
f 190/1/3 188/1/3 189/1/3
f 193/1/3 192/1/3 191/1/3
f 194/1/3 192/1/3 193/1/3
f 197/1/3 196/1/3 195/1/3
f 198/1/3 196/1/3 197/1/3
f 201/1/3 200/1/3 199/1/3
f 202/1/3 200/1/3 201/1/3
f 205/1/3 204/1/3 203/1/3
f 206/1/3 204/1/3 205/1/3
f 209/1/3 208/1/3 207/1/3
f 210/1/3 208/1/3 209/1/3
f 213/1/3 212/1/3 211/1/3
f 214/1/3 212/1/3 213/1/3
f 217/1/3 216/1/3 215/1/3
f 218/1/3 216/1/3 217/1/3
f 221/1/3 220/1/3 219/1/3
f 222/1/3 220/1/3 221/1/3
f 225/1/3 224/1/3 223/1/3
f 226/1/3 224/1/3 225/1/3
f 229/1/3 228/1/3 227/1/3
f 230/1/3 228/1/3 229/1/3
f 233/1/3 232/1/3 231/1/3
f 234/1/3 232/1/3 233/1/3
f 237/1/3 236/1/3 235/1/3
f 238/1/3 236/1/3 237/1/3
f 239/1/4 240/1/4 241/1/4
f 241/1/4 240/1/4 242/1/4
f 243/1/4 244/1/4 245/1/4
f 245/1/4 244/1/4 246/1/4
f 247/1/4 248/1/4 249/1/4
f 249/1/4 248/1/4 250/1/4
f 251/1/4 252/1/4 253/1/4
f 253/1/4 252/1/4 254/1/4
f 255/1/4 256/1/4 257/1/4
f 257/1/4 256/1/4 258/1/4
f 259/1/4 260/1/4 261/1/4
f 261/1/4 260/1/4 262/1/4
f 263/1/4 264/1/4 265/1/4
f 265/1/4 264/1/4 266/1/4
f 267/1/4 268/1/4 269/1/4
f 269/1/4 268/1/4 270/1/4
f 271/1/4 272/1/4 273/1/4
f 273/1/4 272/1/4 274/1/4
f 275/1/4 276/1/4 277/1/4
f 277/1/4 276/1/4 278/1/4
f 279/1/4 280/1/4 281/1/4
f 281/1/4 280/1/4 282/1/4
f 283/1/4 284/1/4 285/1/4
f 285/1/4 284/1/4 286/1/4
f 287/1/4 288/1/4 289/1/4
f 289/1/4 288/1/4 290/1/4
f 291/1/4 292/1/4 293/1/4
f 293/1/4 292/1/4 294/1/4
f 295/1/4 296/1/4 297/1/4
f 297/1/4 298/1/4 299/1/4
f 299/1/4 300/1/4 301/1/4
f 301/1/4 302/1/4 303/1/4
f 303/1/4 304/1/4 305/1/4
f 295/1/4 297/1/4 307/1/4
f 305/1/4 306/1/4 307/1/4
f 303/1/4 305/1/4 307/1/4
f 301/1/4 303/1/4 307/1/4
f 299/1/4 301/1/4 307/1/4
f 297/1/4 299/1/4 307/1/4
f 307/1/4 306/1/4 308/1/4
f 295/1/4 307/1/4 309/1/4
f 295/1/4 309/1/4 311/1/4
f 309/1/4 310/1/4 311/1/4
f 311/1/4 310/1/4 312/1/4
f 295/1/4 311/1/4 313/1/4
f 295/1/4 313/1/4 315/1/4
f 313/1/4 314/1/4 315/1/4
f 315/1/4 314/1/4 316/1/4
f 295/1/4 315/1/4 317/1/4
f 295/1/4 317/1/4 319/1/4
f 317/1/4 318/1/4 319/1/4
f 319/1/4 318/1/4 320/1/4
f 295/1/4 319/1/4 321/1/4
f 295/1/4 321/1/4 323/1/4
f 321/1/4 322/1/4 323/1/4
f 323/1/4 322/1/4 324/1/4
f 327/1/5 326/1/5 325/1/5
f 328/1/5 326/1/5 327/1/5
f 329/1/6 330/1/6 331/1/6
f 331/1/6 330/1/6 332/1/6
f 333/1/6 334/1/6 335/1/6
f 335/1/6 334/1/6 336/1/6
f 337/1/6 338/1/6 341/1/6
f 341/1/6 338/1/6 342/1/6
f 339/1/6 340/1/6 343/1/6
f 343/1/6 340/1/6 344/1/6
f 345/1/6 346/1/6 347/1/6
f 347/1/6 346/1/6 348/1/6
f 349/1/6 350/1/6 351/1/6
f 351/1/6 350/1/6 352/1/6
f 353/1/6 354/1/6 355/1/6
f 355/1/6 354/1/6 356/1/6
f 357/1/6 358/1/6 359/1/6
f 359/1/6 358/1/6 360/1/6
f 361/1/6 362/1/6 365/1/6
f 365/1/6 362/1/6 366/1/6
f 339/1/6 343/1/6 369/1/6
f 363/1/6 364/1/6 370/1/6
f 367/1/6 368/1/6 371/1/6
f 371/1/6 368/1/6 372/1/6
f 369/1/6 370/1/6 373/1/6
f 339/1/6 369/1/6 373/1/6
f 370/1/6 364/1/6 374/1/6
f 373/1/6 370/1/6 374/1/6
f 333/1/6 335/1/6 375/1/6
f 337/1/6 341/1/6 376/1/6
f 342/1/6 338/1/6 377/1/6
f 344/1/6 340/1/6 378/1/6
f 345/1/6 347/1/6 379/1/6
f 349/1/6 351/1/6 380/1/6
f 375/1/6 376/1/6 381/1/6
f 333/1/6 375/1/6 381/1/6
f 376/1/6 341/1/6 382/1/6
f 381/1/6 376/1/6 382/1/6
f 342/1/6 377/1/6 383/1/6
f 377/1/6 378/1/6 383/1/6
f 378/1/6 340/1/6 384/1/6
f 383/1/6 378/1/6 384/1/6
f 379/1/6 380/1/6 385/1/6
f 345/1/6 379/1/6 385/1/6
f 380/1/6 351/1/6 386/1/6
f 385/1/6 380/1/6 386/1/6
f 329/1/6 331/1/6 387/1/6
f 387/1/6 331/1/6 388/1/6
f 353/1/6 355/1/6 389/1/6
f 389/1/6 355/1/6 390/1/6
f 357/1/6 359/1/6 391/1/6
f 391/1/6 359/1/6 392/1/6
f 361/1/6 365/1/6 393/1/6
f 393/1/6 365/1/6 394/1/6
f 367/1/6 371/1/6 395/1/6
f 395/1/6 371/1/6 396/1/6
f 397/1/6 398/1/6 399/1/6
f 399/1/6 398/1/6 400/1/6
f 397/1/6 399/1/6 401/1/6
f 401/1/6 399/1/6 402/1/6
f 403/1/6 404/1/6 405/1/6
f 405/1/6 404/1/6 406/1/6
f 403/1/6 405/1/6 407/1/6
f 407/1/6 405/1/6 408/1/6
f 409/1/6 410/1/6 411/1/6
f 411/1/6 410/1/6 412/1/6
f 409/1/6 411/1/6 413/1/6
f 413/1/6 411/1/6 414/1/6
f 415/1/6 416/1/6 417/1/6
f 417/1/6 416/1/6 418/1/6
f 415/1/6 417/1/6 419/1/6
f 419/1/6 417/1/6 420/1/6
f 421/1/6 422/1/6 423/1/6
f 423/1/6 422/1/6 424/1/6
f 425/1/6 426/1/6 427/1/6
f 427/1/6 426/1/6 428/1/6
f 428/1/6 426/1/6 429/1/6
f 429/1/6 426/1/6 430/1/6
f 430/1/6 426/1/6 435/1/6
f 435/1/6 426/1/6 436/1/6
f 437/1/6 438/1/6 439/1/6
f 439/1/6 438/1/6 440/1/6
f 441/1/6 442/1/6 443/1/6
f 443/1/6 442/1/6 444/1/6
f 445/1/6 446/1/6 447/1/6
f 447/1/6 446/1/6 448/1/6
f 449/1/6 450/1/6 451/1/6
f 451/1/6 450/1/6 452/1/6
f 433/1/6 434/1/6 453/1/6
f 453/1/6 434/1/6 454/1/6
f 455/1/6 456/1/6 457/1/6
f 457/1/6 456/1/6 458/1/6
f 433/1/6 453/1/6 459/1/6
f 459/1/6 453/1/6 460/1/6
f 428/1/6 429/1/6 463/1/6
f 454/1/6 434/1/6 464/1/6
f 425/1/6 427/1/6 465/1/6
f 465/1/6 427/1/6 466/1/6
f 463/1/6 464/1/6 467/1/6
f 428/1/6 463/1/6 467/1/6
f 464/1/6 434/1/6 468/1/6
f 467/1/6 464/1/6 468/1/6
f 437/1/6 439/1/6 469/1/6
f 469/1/6 439/1/6 470/1/6
f 421/1/6 423/1/6 471/1/6
f 431/1/6 432/1/6 472/1/6
f 472/1/6 432/1/6 473/1/6
f 430/1/6 435/1/6 474/1/6
f 474/1/6 435/1/6 475/1/6
f 441/1/6 443/1/6 476/1/6
f 474/1/6 475/1/6 477/1/6
f 475/1/6 476/1/6 477/1/6
f 421/1/6 471/1/6 477/1/6
f 472/1/6 473/1/6 477/1/6
f 473/1/6 474/1/6 477/1/6
f 471/1/6 472/1/6 477/1/6
f 476/1/6 443/1/6 478/1/6
f 477/1/6 476/1/6 478/1/6
f 445/1/6 447/1/6 479/1/6
f 479/1/6 447/1/6 480/1/6
f 449/1/6 451/1/6 481/1/6
f 481/1/6 451/1/6 482/1/6
f 455/1/6 457/1/6 483/1/6
f 483/1/6 457/1/6 484/1/6
f 461/1/6 462/1/6 485/1/6
f 485/1/6 462/1/6 486/1/6
