# MagicaVoxel @ Ephtracy

# group
g Pyramid-20

# material
mtllib Pyramid-20.mtl
usemtl palette

# normals
vn -1 0 0
vn 1 0 0
vn 0 0 1
vn 0 0 -1
vn 0 -1 0
vn 0 1 0

# texcoords
vt 0.341797 0.5

# verts
v -39 0 39
v -39 0 -39
v -39 1 39
v -39 1 -39
v -38 1 38
v -38 1 -39
v -38 2 38
v -38 2 -39
v -37 2 37
v -37 2 -39
v -37 3 37
v -37 3 -39
v -36 3 36
v -36 3 -39
v -36 4 36
v -36 4 -39
v -35 4 35
v -35 4 -39
v -35 5 35
v -35 5 -39
v -34 5 34
v -34 5 -39
v -34 6 34
v -34 6 -39
v 39 0 39
v 39 0 -39
v 39 1 39
v 39 1 38
v 39 2 38
v 39 2 37
v 39 3 37
v 39 3 36
v 39 4 36
v 39 4 35
v 39 5 35
v 39 5 34
v 39 6 34
v 39 6 -39
v -39 0 39
v -39 1 39
v 39 0 39
v 39 1 39
v -38 1 38
v -38 2 38
v 39 1 38
v 39 2 38
v -37 2 37
v -37 3 37
v 39 2 37
v 39 3 37
v -36 3 36
v -36 4 36
v 39 3 36
v 39 4 36
v -35 4 35
v -35 5 35
v 39 4 35
v 39 5 35
v -34 5 34
v -34 6 34
v 39 5 34
v 39 6 34
v -39 0 -39
v -39 1 -39
v -38 1 -39
v -38 2 -39
v -37 2 -39
v -37 3 -39
v -36 3 -39
v -36 4 -39
v -35 4 -39
v -35 5 -39
v -34 5 -39
v -34 6 -39
v 39 0 -39
v 39 6 -39
v -39 0 39
v 39 0 39
v -39 0 -39
v 39 0 -39
v -39 1 39
v 39 1 39
v -38 1 38
v 39 1 38
v -39 1 -39
v -38 1 -39
v -38 2 38
v 39 2 38
v -37 2 37
v 39 2 37
v -38 2 -39
v -37 2 -39
v -37 3 37
v 39 3 37
v -36 3 36
v 39 3 36
v -37 3 -39
v -36 3 -39
v -36 4 36
v 39 4 36
v -35 4 35
v 39 4 35
v -36 4 -39
v -35 4 -39
v -35 5 35
v 39 5 35
v -34 5 34
v 39 5 34
v -35 5 -39
v -34 5 -39
v -34 6 34
v 39 6 34
v -34 6 -39
v 39 6 -39

# faces
f 3/1/1 2/1/1 1/1/1
f 4/1/1 2/1/1 3/1/1
f 7/1/1 6/1/1 5/1/1
f 8/1/1 6/1/1 7/1/1
f 11/1/1 10/1/1 9/1/1
f 12/1/1 10/1/1 11/1/1
f 15/1/1 14/1/1 13/1/1
f 16/1/1 14/1/1 15/1/1
f 19/1/1 18/1/1 17/1/1
f 20/1/1 18/1/1 19/1/1
f 23/1/1 22/1/1 21/1/1
f 24/1/1 22/1/1 23/1/1
f 25/1/2 26/1/2 27/1/2
f 27/1/2 26/1/2 28/1/2
f 28/1/2 26/1/2 29/1/2
f 29/1/2 26/1/2 30/1/2
f 30/1/2 26/1/2 31/1/2
f 31/1/2 26/1/2 32/1/2
f 32/1/2 26/1/2 33/1/2
f 33/1/2 26/1/2 34/1/2
f 34/1/2 26/1/2 35/1/2
f 35/1/2 26/1/2 36/1/2
f 36/1/2 26/1/2 37/1/2
f 37/1/2 26/1/2 38/1/2
f 41/1/3 40/1/3 39/1/3
f 42/1/3 40/1/3 41/1/3
f 45/1/3 44/1/3 43/1/3
f 46/1/3 44/1/3 45/1/3
f 49/1/3 48/1/3 47/1/3
f 50/1/3 48/1/3 49/1/3
f 53/1/3 52/1/3 51/1/3
f 54/1/3 52/1/3 53/1/3
f 57/1/3 56/1/3 55/1/3
f 58/1/3 56/1/3 57/1/3
f 61/1/3 60/1/3 59/1/3
f 62/1/3 60/1/3 61/1/3
f 63/1/4 64/1/4 65/1/4
f 65/1/4 66/1/4 67/1/4
f 67/1/4 68/1/4 69/1/4
f 69/1/4 70/1/4 71/1/4
f 71/1/4 72/1/4 73/1/4
f 63/1/4 65/1/4 75/1/4
f 73/1/4 74/1/4 75/1/4
f 71/1/4 73/1/4 75/1/4
f 69/1/4 71/1/4 75/1/4
f 67/1/4 69/1/4 75/1/4
f 65/1/4 67/1/4 75/1/4
f 75/1/4 74/1/4 76/1/4
f 79/1/5 78/1/5 77/1/5
f 80/1/5 78/1/5 79/1/5
f 81/1/6 82/1/6 83/1/6
f 83/1/6 82/1/6 84/1/6
f 81/1/6 83/1/6 85/1/6
f 85/1/6 83/1/6 86/1/6
f 87/1/6 88/1/6 89/1/6
f 89/1/6 88/1/6 90/1/6
f 87/1/6 89/1/6 91/1/6
f 91/1/6 89/1/6 92/1/6
f 93/1/6 94/1/6 95/1/6
f 95/1/6 94/1/6 96/1/6
f 93/1/6 95/1/6 97/1/6
f 97/1/6 95/1/6 98/1/6
f 99/1/6 100/1/6 101/1/6
f 101/1/6 100/1/6 102/1/6
f 99/1/6 101/1/6 103/1/6
f 103/1/6 101/1/6 104/1/6
f 105/1/6 106/1/6 107/1/6
f 107/1/6 106/1/6 108/1/6
f 105/1/6 107/1/6 109/1/6
f 109/1/6 107/1/6 110/1/6
f 111/1/6 112/1/6 113/1/6
f 113/1/6 112/1/6 114/1/6
