# MagicaVoxel @ Ephtracy

# group
g Acropolis-13

# material
mtllib Acropolis-13.mtl
usemtl palette

# normals
vn -1 0 0
vn 1 0 0
vn 0 0 1
vn 0 0 -1
vn 0 -1 0
vn 0 1 0

# texcoords
vt 0.962891 0.5
vt 0.994141 0.5

# verts
v -60 0 60
v -60 0 -60
v -60 10 60
v -60 10 -60
v 24 3 57
v 24 3 34
v 24 3 -34
v 24 3 -57
v 24 4 41
v 24 4 34
v 24 4 -34
v 24 4 -41
v 24 5 42
v 24 5 41
v 24 5 -41
v 24 5 -42
v 24 6 43
v 24 6 42
v 24 6 -42
v 24 6 -43
v 24 7 44
v 24 7 43
v 24 7 -43
v 24 7 -44
v 24 8 45
v 24 8 44
v 24 8 -44
v 24 8 -45
v 24 9 46
v 24 9 45
v 24 9 -45
v 24 9 -46
v 24 10 57
v 24 10 46
v 24 10 -46
v 24 10 -57
v 25 0 60
v 25 0 34
v 25 0 -34
v 25 0 -60
v 25 3 57
v 25 3 34
v 25 3 -34
v 25 3 -57
v 25 4 41
v 25 4 34
v 25 4 -34
v 25 4 -41
v 25 5 42
v 25 5 41
v 25 5 -41
v 25 5 -42
v 25 6 43
v 25 6 42
v 25 6 -42
v 25 6 -43
v 25 7 44
v 25 7 43
v 25 7 -43
v 25 7 -44
v 25 8 45
v 25 8 44
v 25 8 -44
v 25 8 -45
v 25 9 46
v 25 9 45
v 25 9 -45
v 25 9 -46
v 25 10 60
v 25 10 57
v 25 10 46
v 25 10 34
v 25 10 -34
v 25 10 -46
v 25 10 -57
v 25 10 -60
v 51 7 2
v 51 7 -2
v 51 9 30
v 51 9 2
v 51 9 -2
v 51 9 -30
v 51 10 30
v 51 10 -30
v 52 8 30
v 52 8 2
v 52 8 -2
v 52 8 -30
v 52 9 30
v 52 9 2
v 52 9 -2
v 52 9 -30
v 53 7 30
v 53 7 2
v 53 7 -2
v 53 7 -30
v 53 8 30
v 53 8 2
v 53 8 -2
v 53 8 -30
v 54 4 2
v 54 4 -2
v 54 6 30
v 54 6 2
v 54 6 -2
v 54 6 -30
v 54 7 30
v 54 7 -30
v 55 5 30
v 55 5 2
v 55 5 -2
v 55 5 -30
v 55 6 30
v 55 6 2
v 55 6 -2
v 55 6 -30
v 56 4 30
v 56 4 2
v 56 4 -2
v 56 4 -30
v 56 5 30
v 56 5 2
v 56 5 -2
v 56 5 -30
v 57 1 2
v 57 1 -2
v 57 3 30
v 57 3 2
v 57 3 -2
v 57 3 -30
v 57 4 30
v 57 4 -30
v 58 2 30
v 58 2 2
v 58 2 -2
v 58 2 -30
v 58 3 30
v 58 3 2
v 58 3 -2
v 58 3 -30
v 59 1 30
v 59 1 2
v 59 1 -2
v 59 1 -30
v 59 2 30
v 59 2 2
v 59 2 -2
v 59 2 -30
v 60 0 34
v 60 0 -34
v 60 1 30
v 60 1 -30
v 60 10 34
v 60 10 30
v 60 10 -30
v 60 10 -34
v -60 0 60
v -60 10 60
v 25 0 60
v 25 10 60
v 24 9 46
v 24 10 46
v 25 9 46
v 25 10 46
v 24 8 45
v 24 9 45
v 25 8 45
v 25 9 45
v 24 7 44
v 24 8 44
v 25 7 44
v 25 8 44
v 24 6 43
v 24 7 43
v 25 6 43
v 25 7 43
v 24 5 42
v 24 6 42
v 25 5 42
v 25 6 42
v 24 4 41
v 24 5 41
v 25 4 41
v 25 5 41
v 24 3 34
v 24 4 34
v 25 0 34
v 25 3 34
v 25 4 34
v 25 10 34
v 60 0 34
v 60 10 34
v 51 7 -2
v 51 9 -2
v 52 8 -2
v 52 9 -2
v 53 7 -2
v 53 8 -2
v 54 4 -2
v 54 6 -2
v 55 5 -2
v 55 6 -2
v 56 4 -2
v 56 5 -2
v 57 1 -2
v 57 3 -2
v 58 2 -2
v 58 3 -2
v 59 1 -2
v 59 2 -2
v 51 9 -30
v 51 10 -30
v 52 8 -30
v 52 9 -30
v 53 7 -30
v 53 8 -30
v 54 6 -30
v 54 7 -30
v 55 5 -30
v 55 6 -30
v 56 4 -30
v 56 5 -30
v 57 3 -30
v 57 4 -30
v 58 2 -30
v 58 3 -30
v 59 1 -30
v 59 2 -30
v 60 1 -30
v 60 10 -30
v 24 3 -57
v 24 10 -57
v 25 3 -57
v 25 10 -57
v 24 3 57
v 24 10 57
v 25 3 57
v 25 10 57
v 51 9 30
v 51 10 30
v 52 8 30
v 52 9 30
v 53 7 30
v 53 8 30
v 54 6 30
v 54 7 30
v 55 5 30
v 55 6 30
v 56 4 30
v 56 5 30
v 57 3 30
v 57 4 30
v 58 2 30
v 58 3 30
v 59 1 30
v 59 2 30
v 60 1 30
v 60 10 30
v 51 7 2
v 51 9 2
v 52 8 2
v 52 9 2
v 53 7 2
v 53 8 2
v 54 4 2
v 54 6 2
v 55 5 2
v 55 6 2
v 56 4 2
v 56 5 2
v 57 1 2
v 57 3 2
v 58 2 2
v 58 3 2
v 59 1 2
v 59 2 2
v 24 3 -34
v 24 4 -34
v 25 0 -34
v 25 3 -34
v 25 4 -34
v 25 10 -34
v 60 0 -34
v 60 10 -34
v 24 4 -41
v 24 5 -41
v 25 4 -41
v 25 5 -41
v 24 5 -42
v 24 6 -42
v 25 5 -42
v 25 6 -42
v 24 6 -43
v 24 7 -43
v 25 6 -43
v 25 7 -43
v 24 7 -44
v 24 8 -44
v 25 7 -44
v 25 8 -44
v 24 8 -45
v 24 9 -45
v 25 8 -45
v 25 9 -45
v 24 9 -46
v 24 10 -46
v 25 9 -46
v 25 10 -46
v -60 0 -60
v -60 10 -60
v 25 0 -60
v 25 10 -60
v -60 0 60
v 25 0 60
v 25 0 34
v 60 0 34
v 25 0 -34
v 60 0 -34
v -60 0 -60
v 25 0 -60
v 24 4 41
v 25 4 41
v 24 4 34
v 25 4 34
v 24 4 -34
v 25 4 -34
v 24 4 -41
v 25 4 -41
v 24 5 42
v 25 5 42
v 24 5 41
v 25 5 41
v 24 5 -41
v 25 5 -41
v 24 5 -42
v 25 5 -42
v 24 6 43
v 25 6 43
v 24 6 42
v 25 6 42
v 24 6 -42
v 25 6 -42
v 24 6 -43
v 25 6 -43
v 24 7 44
v 25 7 44
v 24 7 43
v 25 7 43
v 24 7 -43
v 25 7 -43
v 24 7 -44
v 25 7 -44
v 24 8 45
v 25 8 45
v 24 8 44
v 25 8 44
v 24 8 -44
v 25 8 -44
v 24 8 -45
v 25 8 -45
v 24 9 46
v 25 9 46
v 24 9 45
v 25 9 45
v 24 9 -45
v 25 9 -45
v 24 9 -46
v 25 9 -46
v 59 1 30
v 60 1 30
v 57 1 2
v 59 1 2
v 57 1 -2
v 59 1 -2
v 59 1 -30
v 60 1 -30
v 58 2 30
v 59 2 30
v 58 2 2
v 59 2 2
v 58 2 -2
v 59 2 -2
v 58 2 -30
v 59 2 -30
v 24 3 57
v 25 3 57
v 24 3 34
v 25 3 34
v 57 3 30
v 58 3 30
v 57 3 2
v 58 3 2
v 57 3 -2
v 58 3 -2
v 57 3 -30
v 58 3 -30
v 24 3 -34
v 25 3 -34
v 24 3 -57
v 25 3 -57
v 56 4 30
v 57 4 30
v 54 4 2
v 56 4 2
v 54 4 -2
v 56 4 -2
v 56 4 -30
v 57 4 -30
v 55 5 30
v 56 5 30
v 55 5 2
v 56 5 2
v 55 5 -2
v 56 5 -2
v 55 5 -30
v 56 5 -30
v 54 6 30
v 55 6 30
v 54 6 2
v 55 6 2
v 54 6 -2
v 55 6 -2
v 54 6 -30
v 55 6 -30
v 53 7 30
v 54 7 30
v 51 7 2
v 53 7 2
v 51 7 -2
v 53 7 -2
v 53 7 -30
v 54 7 -30
v 52 8 30
v 53 8 30
v 52 8 2
v 53 8 2
v 52 8 -2
v 53 8 -2
v 52 8 -30
v 53 8 -30
v 51 9 30
v 52 9 30
v 51 9 2
v 52 9 2
v 51 9 -2
v 52 9 -2
v 51 9 -30
v 52 9 -30
v -60 10 60
v 25 10 60
v 23 10 57
v 24 10 57
v 25 10 57
v 23 10 46
v 24 10 46
v 25 10 46
v 25 10 34
v 60 10 34
v 51 10 30
v 60 10 30
v 51 10 -30
v 60 10 -30
v 25 10 -34
v 60 10 -34
v 23 10 -46
v 24 10 -46
v 25 10 -46
v 23 10 -57
v 24 10 -57
v 25 10 -57
v -60 10 -60
v 25 10 -60

# faces
f 3/1/1 2/1/1 1/1/1
f 4/1/1 2/1/1 3/1/1
f 5/2/2 6/2/2 9/2/2
f 9/2/2 6/2/2 10/2/2
f 7/2/2 8/2/2 11/2/2
f 11/2/2 8/2/2 12/2/2
f 5/2/2 9/2/2 13/2/2
f 13/2/2 9/2/2 14/2/2
f 12/2/2 8/2/2 15/2/2
f 15/2/2 8/2/2 16/2/2
f 5/2/2 13/2/2 17/2/2
f 17/2/2 13/2/2 18/2/2
f 16/2/2 8/2/2 19/2/2
f 19/2/2 8/2/2 20/2/2
f 5/2/2 17/2/2 21/2/2
f 21/2/2 17/2/2 22/2/2
f 20/2/2 8/2/2 23/2/2
f 23/2/2 8/2/2 24/2/2
f 5/2/2 21/2/2 25/2/2
f 25/2/2 21/2/2 26/2/2
f 24/2/2 8/2/2 27/2/2
f 27/2/2 8/2/2 28/2/2
f 5/2/2 25/2/2 29/2/2
f 29/2/2 25/2/2 30/2/2
f 28/2/2 8/2/2 31/2/2
f 31/2/2 8/2/2 32/2/2
f 5/2/2 29/2/2 33/2/2
f 33/2/2 29/2/2 34/2/2
f 32/2/2 8/2/2 35/2/2
f 35/2/2 8/2/2 36/2/2
f 37/1/2 38/1/2 41/1/2
f 41/1/2 38/1/2 42/1/2
f 39/1/2 40/1/2 43/1/2
f 43/1/2 40/1/2 44/1/2
f 45/1/2 46/1/2 50/1/2
f 47/1/2 48/1/2 51/1/2
f 49/1/2 50/1/2 54/1/2
f 51/1/2 52/1/2 55/1/2
f 53/1/2 54/1/2 58/1/2
f 55/1/2 56/1/2 59/1/2
f 57/1/2 58/1/2 62/1/2
f 59/1/2 60/1/2 63/1/2
f 61/1/2 62/1/2 66/1/2
f 63/1/2 64/1/2 67/1/2
f 37/1/2 41/1/2 69/1/2
f 69/1/2 41/1/2 70/1/2
f 65/1/2 66/1/2 71/1/2
f 50/1/2 46/1/2 72/1/2
f 71/1/2 66/1/2 72/1/2
f 54/1/2 50/1/2 72/1/2
f 58/1/2 54/1/2 72/1/2
f 62/1/2 58/1/2 72/1/2
f 66/1/2 62/1/2 72/1/2
f 67/1/2 68/1/2 73/1/2
f 47/1/2 51/1/2 73/1/2
f 59/1/2 63/1/2 73/1/2
f 51/1/2 55/1/2 73/1/2
f 63/1/2 67/1/2 73/1/2
f 55/1/2 59/1/2 73/1/2
f 73/1/2 68/1/2 74/1/2
f 44/1/2 40/1/2 75/1/2
f 75/1/2 40/1/2 76/1/2
f 77/1/2 78/1/2 80/1/2
f 80/1/2 78/1/2 81/1/2
f 79/1/2 80/1/2 83/1/2
f 81/1/2 82/1/2 83/1/2
f 80/1/2 81/1/2 83/1/2
f 83/1/2 82/1/2 84/1/2
f 85/1/2 86/1/2 89/1/2
f 89/1/2 86/1/2 90/1/2
f 87/1/2 88/1/2 91/1/2
f 91/1/2 88/1/2 92/1/2
f 93/1/2 94/1/2 97/1/2
f 97/1/2 94/1/2 98/1/2
f 95/1/2 96/1/2 99/1/2
f 99/1/2 96/1/2 100/1/2
f 101/1/2 102/1/2 104/1/2
f 104/1/2 102/1/2 105/1/2
f 103/1/2 104/1/2 107/1/2
f 105/1/2 106/1/2 107/1/2
f 104/1/2 105/1/2 107/1/2
f 107/1/2 106/1/2 108/1/2
f 109/1/2 110/1/2 113/1/2
f 113/1/2 110/1/2 114/1/2
f 111/1/2 112/1/2 115/1/2
f 115/1/2 112/1/2 116/1/2
f 117/1/2 118/1/2 121/1/2
f 121/1/2 118/1/2 122/1/2
f 119/1/2 120/1/2 123/1/2
f 123/1/2 120/1/2 124/1/2
f 125/1/2 126/1/2 128/1/2
f 128/1/2 126/1/2 129/1/2
f 127/1/2 128/1/2 131/1/2
f 129/1/2 130/1/2 131/1/2
f 128/1/2 129/1/2 131/1/2
f 131/1/2 130/1/2 132/1/2
f 133/1/2 134/1/2 137/1/2
f 137/1/2 134/1/2 138/1/2
f 135/1/2 136/1/2 139/1/2
f 139/1/2 136/1/2 140/1/2
f 141/1/2 142/1/2 145/1/2
f 145/1/2 142/1/2 146/1/2
f 143/1/2 144/1/2 147/1/2
f 147/1/2 144/1/2 148/1/2
f 149/1/2 150/1/2 151/1/2
f 151/1/2 150/1/2 152/1/2
f 149/1/2 151/1/2 153/1/2
f 153/1/2 151/1/2 154/1/2
f 152/1/2 150/1/2 155/1/2
f 155/1/2 150/1/2 156/1/2
f 159/1/3 158/1/3 157/1/3
f 160/1/3 158/1/3 159/1/3
f 163/1/3 162/1/3 161/1/3
f 164/1/3 162/1/3 163/1/3
f 167/1/3 166/1/3 165/1/3
f 168/1/3 166/1/3 167/1/3
f 171/1/3 170/1/3 169/1/3
f 172/1/3 170/1/3 171/1/3
f 175/1/3 174/1/3 173/1/3
f 176/1/3 174/1/3 175/1/3
f 179/1/3 178/1/3 177/1/3
f 180/1/3 178/1/3 179/1/3
f 183/1/3 182/1/3 181/1/3
f 184/1/3 182/1/3 183/1/3
f 188/1/3 186/1/3 185/1/3
f 189/1/3 186/1/3 188/1/3
f 191/1/3 188/1/3 187/1/3
f 191/1/3 190/1/3 189/1/3
f 191/1/3 189/1/3 188/1/3
f 192/1/3 190/1/3 191/1/3
f 195/1/3 194/1/3 193/1/3
f 196/1/3 194/1/3 195/1/3
f 197/1/3 195/1/3 193/1/3
f 198/1/3 195/1/3 197/1/3
f 201/1/3 200/1/3 199/1/3
f 202/1/3 200/1/3 201/1/3
f 203/1/3 201/1/3 199/1/3
f 204/1/3 201/1/3 203/1/3
f 207/1/3 206/1/3 205/1/3
f 208/1/3 206/1/3 207/1/3
f 209/1/3 207/1/3 205/1/3
f 210/1/3 207/1/3 209/1/3
f 214/1/3 212/1/3 211/1/3
f 216/1/3 214/1/3 213/1/3
f 218/1/3 216/1/3 215/1/3
f 220/1/3 218/1/3 217/1/3
f 222/1/3 220/1/3 219/1/3
f 224/1/3 222/1/3 221/1/3
f 226/1/3 224/1/3 223/1/3
f 228/1/3 226/1/3 225/1/3
f 229/1/3 228/1/3 227/1/3
f 230/1/3 212/1/3 214/1/3
f 230/1/3 228/1/3 229/1/3
f 230/1/3 214/1/3 216/1/3
f 230/1/3 226/1/3 228/1/3
f 230/1/3 216/1/3 218/1/3
f 230/1/3 224/1/3 226/1/3
f 230/1/3 218/1/3 220/1/3
f 230/1/3 222/1/3 224/1/3
f 230/1/3 220/1/3 222/1/3
f 233/1/3 232/1/3 231/1/3
f 234/1/3 232/1/3 233/1/3
f 235/1/4 236/1/4 237/1/4
f 237/1/4 236/1/4 238/1/4
f 239/1/4 240/1/4 242/1/4
f 241/1/4 242/1/4 244/1/4
f 243/1/4 244/1/4 246/1/4
f 245/1/4 246/1/4 248/1/4
f 247/1/4 248/1/4 250/1/4
f 249/1/4 250/1/4 252/1/4
f 251/1/4 252/1/4 254/1/4
f 253/1/4 254/1/4 256/1/4
f 255/1/4 256/1/4 257/1/4
f 242/1/4 240/1/4 258/1/4
f 257/1/4 256/1/4 258/1/4
f 244/1/4 242/1/4 258/1/4
f 256/1/4 254/1/4 258/1/4
f 246/1/4 244/1/4 258/1/4
f 254/1/4 252/1/4 258/1/4
f 248/1/4 246/1/4 258/1/4
f 252/1/4 250/1/4 258/1/4
f 250/1/4 248/1/4 258/1/4
f 259/1/4 260/1/4 261/1/4
f 261/1/4 260/1/4 262/1/4
f 259/1/4 261/1/4 263/1/4
f 263/1/4 261/1/4 264/1/4
f 265/1/4 266/1/4 267/1/4
f 267/1/4 266/1/4 268/1/4
f 265/1/4 267/1/4 269/1/4
f 269/1/4 267/1/4 270/1/4
f 271/1/4 272/1/4 273/1/4
f 273/1/4 272/1/4 274/1/4
f 271/1/4 273/1/4 275/1/4
f 275/1/4 273/1/4 276/1/4
f 277/1/4 278/1/4 280/1/4
f 280/1/4 278/1/4 281/1/4
f 279/1/4 280/1/4 283/1/4
f 281/1/4 282/1/4 283/1/4
f 280/1/4 281/1/4 283/1/4
f 283/1/4 282/1/4 284/1/4
f 285/1/4 286/1/4 287/1/4
f 287/1/4 286/1/4 288/1/4
f 289/1/4 290/1/4 291/1/4
f 291/1/4 290/1/4 292/1/4
f 293/1/4 294/1/4 295/1/4
f 295/1/4 294/1/4 296/1/4
f 297/1/4 298/1/4 299/1/4
f 299/1/4 298/1/4 300/1/4
f 301/1/4 302/1/4 303/1/4
f 303/1/4 302/1/4 304/1/4
f 305/1/4 306/1/4 307/1/4
f 307/1/4 306/1/4 308/1/4
f 309/1/4 310/1/4 311/1/4
f 311/1/4 310/1/4 312/1/4
f 315/1/5 314/1/5 313/1/5
f 317/1/5 315/1/5 313/1/5
f 317/1/5 316/1/5 315/1/5
f 318/1/5 316/1/5 317/1/5
f 319/1/5 317/1/5 313/1/5
f 320/1/5 317/1/5 319/1/5
f 323/1/5 322/1/5 321/1/5
f 324/1/5 322/1/5 323/1/5
f 327/1/5 326/1/5 325/1/5
f 328/1/5 326/1/5 327/1/5
f 331/1/5 330/1/5 329/1/5
f 332/1/5 330/1/5 331/1/5
f 335/1/5 334/1/5 333/1/5
f 336/1/5 334/1/5 335/1/5
f 339/1/5 338/1/5 337/1/5
f 340/1/5 338/1/5 339/1/5
f 343/1/5 342/1/5 341/1/5
f 344/1/5 342/1/5 343/1/5
f 347/1/5 346/1/5 345/1/5
f 348/1/5 346/1/5 347/1/5
f 351/1/5 350/1/5 349/1/5
f 352/1/5 350/1/5 351/1/5
f 355/1/5 354/1/5 353/1/5
f 356/1/5 354/1/5 355/1/5
f 359/1/5 358/1/5 357/1/5
f 360/1/5 358/1/5 359/1/5
f 363/1/5 362/1/5 361/1/5
f 364/1/5 362/1/5 363/1/5
f 367/1/5 366/1/5 365/1/5
f 368/1/5 366/1/5 367/1/5
f 369/1/6 370/1/6 372/1/6
f 371/1/6 372/1/6 373/1/6
f 372/1/6 370/1/6 374/1/6
f 373/1/6 372/1/6 374/1/6
f 374/1/6 370/1/6 375/1/6
f 375/1/6 370/1/6 376/1/6
f 377/1/6 378/1/6 379/1/6
f 379/1/6 378/1/6 380/1/6
f 381/1/6 382/1/6 383/1/6
f 383/1/6 382/1/6 384/1/6
f 385/1/6 386/1/6 387/1/6
f 387/1/6 386/1/6 388/1/6
f 389/1/6 390/1/6 391/1/6
f 391/1/6 390/1/6 392/1/6
f 393/1/6 394/1/6 395/1/6
f 395/1/6 394/1/6 396/1/6
f 397/1/6 398/1/6 399/1/6
f 399/1/6 398/1/6 400/1/6
f 401/1/6 402/1/6 404/1/6
f 403/1/6 404/1/6 405/1/6
f 404/1/6 402/1/6 406/1/6
f 405/1/6 404/1/6 406/1/6
f 406/1/6 402/1/6 407/1/6
f 407/1/6 402/1/6 408/1/6
f 409/1/6 410/1/6 411/1/6
f 411/1/6 410/1/6 412/1/6
f 413/1/6 414/1/6 415/1/6
f 415/1/6 414/1/6 416/1/6
f 417/1/6 418/1/6 419/1/6
f 419/1/6 418/1/6 420/1/6
f 421/1/6 422/1/6 423/1/6
f 423/1/6 422/1/6 424/1/6
f 425/1/6 426/1/6 428/1/6
f 427/1/6 428/1/6 429/1/6
f 428/1/6 426/1/6 430/1/6
f 429/1/6 428/1/6 430/1/6
f 430/1/6 426/1/6 431/1/6
f 431/1/6 426/1/6 432/1/6
f 433/1/6 434/1/6 435/1/6
f 435/1/6 434/1/6 436/1/6
f 437/1/6 438/1/6 439/1/6
f 439/1/6 438/1/6 440/1/6
f 441/1/6 442/1/6 443/1/6
f 443/1/6 442/1/6 444/1/6
f 445/1/6 446/1/6 447/1/6
f 447/1/6 446/1/6 448/1/6
f 449/1/6 450/1/6 451/1/6
f 451/1/6 450/1/6 452/1/6
f 452/1/6 450/1/6 453/1/6
f 449/1/6 451/1/6 454/1/6
f 451/2/6 452/2/6 454/2/6
f 454/2/6 452/2/6 455/2/6
f 454/1/6 455/1/6 457/1/6
f 455/1/6 456/1/6 457/1/6
f 457/1/6 458/1/6 459/1/6
f 459/1/6 458/1/6 460/1/6
f 457/1/6 459/1/6 461/1/6
f 454/1/6 457/1/6 463/1/6
f 461/1/6 462/1/6 463/1/6
f 457/1/6 461/1/6 463/1/6
f 463/1/6 462/1/6 464/1/6
f 449/1/6 454/1/6 465/1/6
f 454/1/6 463/1/6 465/1/6
f 465/1/6 463/1/6 466/1/6
f 466/1/6 463/1/6 467/1/6
f 449/1/6 465/1/6 468/1/6
f 465/2/6 466/2/6 468/2/6
f 468/2/6 466/2/6 469/2/6
f 449/1/6 468/1/6 471/1/6
f 469/1/6 470/1/6 471/1/6
f 468/1/6 469/1/6 471/1/6
f 471/1/6 470/1/6 472/1/6
