# MagicaVoxel @ Ephtracy

# group
g Acropolis-24

# material
mtllib Acropolis-24.mtl
usemtl palette

# normals
vn -1 0 0
vn 1 0 0
vn 0 0 1
vn 0 0 -1
vn 0 -1 0
vn 0 1 0

# texcoords
vt 0.841797 0.5
vt 0.962891 0.5

# verts
v -60 0 60
v -60 0 -59
v -60 35 60
v -60 35 -59
v -57 30 57
v -57 30 -59
v -57 35 57
v -57 35 -59
v 60 0 60
v 60 0 -59
v 60 30 57
v 60 30 -59
v 60 35 60
v 60 35 57
v -60 0 60
v -60 35 60
v 60 0 60
v 60 35 60
v -57 30 57
v -57 35 57
v 60 30 57
v 60 35 57
v -60 0 -59
v -60 35 -59
v -57 30 -59
v -57 35 -59
v 60 0 -59
v 60 30 -59
v -60 0 60
v 60 0 60
v 23 0 25
v 24 0 25
v 23 0 24
v 24 0 24
v 25 0 24
v 24 0 23
v 25 0 23
v 26 0 23
v 25 0 22
v 26 0 22
v 27 0 22
v 26 0 21
v 27 0 21
v 28 0 21
v 27 0 20
v 28 0 20
v 29 0 20
v 28 0 19
v 29 0 19
v 30 0 19
v 29 0 18
v 30 0 18
v 31 0 18
v 30 0 17
v 31 0 17
v 32 0 17
v 31 0 16
v 32 0 16
v 33 0 16
v 12 0 15
v 13 0 15
v 32 0 15
v 33 0 15
v 34 0 15
v 33 0 13
v 34 0 13
v 35 0 13
v 11 0 12
v 12 0 12
v 13 0 12
v 34 0 12
v 35 0 12
v 36 0 12
v -23 0 11
v -22 0 11
v 35 0 11
v 36 0 11
v 37 0 11
v 36 0 10
v 37 0 10
v 38 0 10
v 37 0 9
v 38 0 9
v 39 0 9
v 10 0 8
v 11 0 8
v 12 0 8
v 38 0 8
v 39 0 8
v 40 0 8
v 39 0 7
v 40 0 7
v 41 0 7
v 40 0 6
v 41 0 6
v 42 0 6
v -24 0 5
v -23 0 5
v -22 0 5
v 41 0 5
v 42 0 5
v 43 0 5
v 9 0 4
v 10 0 4
v 11 0 4
v 42 0 4
v 43 0 4
v 44 0 4
v 43 0 3
v 44 0 3
v 8 0 -0
v 9 0 -0
v 10 0 -0
v 40 0 -1
v 41 0 -1
v 8 0 -2
v 9 0 -2
v 39 0 -2
v 40 0 -2
v 41 0 -2
v 38 0 -4
v 39 0 -4
v 40 0 -4
v 6 0 -6
v 7 0 -6
v 37 0 -6
v 38 0 -6
v 39 0 -6
v -25 0 -7
v -24 0 -7
v -23 0 -7
v 5 0 -7
v 6 0 -7
v 7 0 -7
v 16 0 -7
v 17 0 -7
v 16 0 -8
v 17 0 -8
v 18 0 -8
v 36 0 -8
v 37 0 -8
v 38 0 -8
v 4 0 -9
v 5 0 -9
v 6 0 -9
v 17 0 -9
v 18 0 -9
v 19 0 -9
v 3 0 -10
v 4 0 -10
v 5 0 -10
v 18 0 -10
v 19 0 -10
v 20 0 -10
v 35 0 -10
v 36 0 -10
v 37 0 -10
v 19 0 -11
v 20 0 -11
v 22 0 -11
v 35 0 -11
v 36 0 -11
v -24 0 -12
v -22 0 -12
v 2 0 -12
v 3 0 -12
v 4 0 -12
v 20 0 -12
v 22 0 -12
v 23 0 -12
v -25 0 -13
v -22 0 -13
v -21 0 -13
v 1 0 -13
v 2 0 -13
v 3 0 -13
v 22 0 -13
v 23 0 -13
v 24 0 -13
v -22 0 -14
v -21 0 -14
v -19 0 -14
v 23 0 -14
v 24 0 -14
v 25 0 -14
v -21 0 -15
v -19 0 -15
v -17 0 -15
v 0 0 -15
v 1 0 -15
v 2 0 -15
v 24 0 -15
v 25 0 -15
v 26 0 -15
v -19 0 -16
v -17 0 -16
v -16 0 -16
v -1 0 -16
v 0 0 -16
v 1 0 -16
v 25 0 -16
v 26 0 -16
v -17 0 -17
v -16 0 -17
v -14 0 -17
v -16 0 -18
v -14 0 -18
v -13 0 -18
v -2 0 -18
v -1 0 -18
v 0 0 -18
v -14 0 -19
v -13 0 -19
v -11 0 -19
v -13 0 -20
v -11 0 -20
v -9 0 -20
v -3 0 -20
v -2 0 -20
v -1 0 -20
v -11 0 -21
v -9 0 -21
v -8 0 -21
v -4 0 -21
v -3 0 -21
v -2 0 -21
v -9 0 -22
v -8 0 -22
v -5 0 -23
v -4 0 -23
v -3 0 -23
v -6 0 -24
v -5 0 -24
v -4 0 -24
v -7 0 -26
v -6 0 -26
v -5 0 -26
v -7 0 -27
v -6 0 -27
v -60 0 -59
v 60 0 -59
v -57 30 57
v 60 30 57
v -57 30 -59
v 60 30 -59
v -60 35 60
v 60 35 60
v -57 35 57
v 60 35 57
v -60 35 -59
v -57 35 -59

# faces
f 3/2/1 2/2/1 1/2/1
f 4/2/1 2/2/1 3/2/1
f 5/2/2 6/2/2 7/2/2
f 7/2/2 6/2/2 8/2/2
f 9/2/2 10/2/2 11/2/2
f 11/2/2 10/2/2 12/2/2
f 9/2/2 11/2/2 13/2/2
f 13/2/2 11/2/2 14/2/2
f 17/2/3 16/2/3 15/2/3
f 18/2/3 16/2/3 17/2/3
f 19/2/4 20/2/4 21/2/4
f 21/2/4 20/2/4 22/2/4
f 23/2/4 24/2/4 25/2/4
f 25/2/4 24/2/4 26/2/4
f 23/2/4 25/2/4 27/2/4
f 27/2/4 25/2/4 28/2/4
f 31/2/5 30/2/5 29/2/5
f 32/2/5 30/2/5 31/2/5
f 33/2/5 31/2/5 29/2/5
f 33/1/5 32/1/5 31/1/5
f 34/2/5 30/2/5 32/2/5
f 34/1/5 32/1/5 33/1/5
f 35/2/5 30/2/5 34/2/5
f 36/2/5 34/2/5 33/2/5
f 36/1/5 35/1/5 34/1/5
f 37/2/5 30/2/5 35/2/5
f 37/1/5 35/1/5 36/1/5
f 38/2/5 30/2/5 37/2/5
f 39/2/5 37/2/5 36/2/5
f 39/1/5 38/1/5 37/1/5
f 40/2/5 30/2/5 38/2/5
f 40/1/5 38/1/5 39/1/5
f 41/2/5 30/2/5 40/2/5
f 42/2/5 40/2/5 39/2/5
f 42/1/5 41/1/5 40/1/5
f 43/2/5 30/2/5 41/2/5
f 43/1/5 41/1/5 42/1/5
f 44/2/5 30/2/5 43/2/5
f 45/2/5 43/2/5 42/2/5
f 45/1/5 44/1/5 43/1/5
f 46/2/5 30/2/5 44/2/5
f 46/1/5 44/1/5 45/1/5
f 47/2/5 30/2/5 46/2/5
f 48/2/5 46/2/5 45/2/5
f 48/1/5 47/1/5 46/1/5
f 49/2/5 30/2/5 47/2/5
f 49/1/5 47/1/5 48/1/5
f 50/2/5 30/2/5 49/2/5
f 51/2/5 49/2/5 48/2/5
f 51/1/5 50/1/5 49/1/5
f 52/2/5 30/2/5 50/2/5
f 52/1/5 50/1/5 51/1/5
f 53/2/5 30/2/5 52/2/5
f 54/2/5 52/2/5 51/2/5
f 54/1/5 53/1/5 52/1/5
f 55/2/5 30/2/5 53/2/5
f 55/1/5 53/1/5 54/1/5
f 56/2/5 30/2/5 55/2/5
f 57/2/5 55/2/5 54/2/5
f 57/1/5 56/1/5 55/1/5
f 58/2/5 30/2/5 56/2/5
f 58/1/5 56/1/5 57/1/5
f 59/2/5 30/2/5 58/2/5
f 60/2/5 33/2/5 29/2/5
f 60/2/5 36/2/5 33/2/5
f 60/2/5 39/2/5 36/2/5
f 60/2/5 58/2/5 57/2/5
f 60/2/5 57/2/5 54/2/5
f 60/2/5 54/2/5 51/2/5
f 60/2/5 51/2/5 48/2/5
f 60/2/5 48/2/5 45/2/5
f 60/2/5 45/2/5 42/2/5
f 60/2/5 42/2/5 39/2/5
f 61/2/5 58/2/5 60/2/5
f 62/1/5 59/1/5 58/1/5
f 62/2/5 58/2/5 61/2/5
f 63/2/5 30/2/5 59/2/5
f 63/1/5 59/1/5 62/1/5
f 64/2/5 30/2/5 63/2/5
f 65/2/5 62/2/5 61/2/5
f 65/2/5 63/2/5 62/2/5
f 65/1/5 64/1/5 63/1/5
f 66/2/5 30/2/5 64/2/5
f 66/1/5 64/1/5 65/1/5
f 67/2/5 30/2/5 66/2/5
f 68/2/5 60/2/5 29/2/5
f 69/1/5 61/1/5 60/1/5
f 69/2/5 60/2/5 68/2/5
f 70/2/5 65/2/5 61/2/5
f 70/1/5 61/1/5 69/1/5
f 70/2/5 66/2/5 65/2/5
f 71/1/5 67/1/5 66/1/5
f 71/2/5 66/2/5 70/2/5
f 72/2/5 30/2/5 67/2/5
f 72/1/5 67/1/5 71/1/5
f 73/2/5 30/2/5 72/2/5
f 74/2/5 68/2/5 29/2/5
f 75/2/5 68/2/5 74/2/5
f 76/2/5 71/2/5 70/2/5
f 76/2/5 70/2/5 69/2/5
f 76/2/5 72/2/5 71/2/5
f 76/1/5 73/1/5 72/1/5
f 77/2/5 30/2/5 73/2/5
f 77/1/5 73/1/5 76/1/5
f 78/2/5 30/2/5 77/2/5
f 79/2/5 77/2/5 76/2/5
f 79/1/5 78/1/5 77/1/5
f 80/2/5 30/2/5 78/2/5
f 80/1/5 78/1/5 79/1/5
f 81/2/5 30/2/5 80/2/5
f 82/2/5 80/2/5 79/2/5
f 82/1/5 81/1/5 80/1/5
f 83/2/5 30/2/5 81/2/5
f 83/1/5 81/1/5 82/1/5
f 84/2/5 30/2/5 83/2/5
f 85/2/5 68/2/5 75/2/5
f 86/1/5 69/1/5 68/1/5
f 86/2/5 68/2/5 85/2/5
f 87/2/5 76/2/5 69/2/5
f 87/1/5 69/1/5 86/1/5
f 87/2/5 79/2/5 76/2/5
f 87/2/5 82/2/5 79/2/5
f 87/2/5 83/2/5 82/2/5
f 88/1/5 84/1/5 83/1/5
f 88/2/5 83/2/5 87/2/5
f 89/2/5 30/2/5 84/2/5
f 89/1/5 84/1/5 88/1/5
f 90/2/5 30/2/5 89/2/5
f 91/2/5 88/2/5 87/2/5
f 91/2/5 87/2/5 86/2/5
f 91/1/5 90/1/5 89/1/5
f 91/2/5 89/2/5 88/2/5
f 92/2/5 30/2/5 90/2/5
f 92/1/5 90/1/5 91/1/5
f 93/2/5 30/2/5 92/2/5
f 94/2/5 92/2/5 91/2/5
f 94/1/5 93/1/5 92/1/5
f 95/2/5 30/2/5 93/2/5
f 95/1/5 93/1/5 94/1/5
f 96/2/5 30/2/5 95/2/5
f 97/2/5 74/2/5 29/2/5
f 98/1/5 75/1/5 74/1/5
f 98/2/5 74/2/5 97/2/5
f 99/2/5 85/2/5 75/2/5
f 99/1/5 75/1/5 98/1/5
f 100/2/5 95/2/5 94/2/5
f 100/1/5 96/1/5 95/1/5
f 101/2/5 30/2/5 96/2/5
f 101/1/5 96/1/5 100/1/5
f 102/2/5 30/2/5 101/2/5
f 103/2/5 85/2/5 99/2/5
f 103/2/5 99/2/5 98/2/5
f 104/1/5 86/1/5 85/1/5
f 104/2/5 85/2/5 103/2/5
f 105/2/5 91/2/5 86/2/5
f 105/1/5 86/1/5 104/1/5
f 105/2/5 100/2/5 94/2/5
f 105/2/5 101/2/5 100/2/5
f 105/2/5 94/2/5 91/2/5
f 106/1/5 102/1/5 101/1/5
f 106/2/5 101/2/5 105/2/5
f 107/2/5 30/2/5 102/2/5
f 107/1/5 102/1/5 106/1/5
f 108/2/5 30/2/5 107/2/5
f 109/2/5 105/2/5 104/2/5
f 109/2/5 106/2/5 105/2/5
f 109/1/5 108/1/5 107/1/5
f 109/2/5 107/2/5 106/2/5
f 110/2/5 30/2/5 108/2/5
f 110/1/5 108/1/5 109/1/5
f 111/2/5 103/2/5 98/2/5
f 112/1/5 104/1/5 103/1/5
f 112/2/5 103/2/5 111/2/5
f 113/2/5 109/2/5 104/2/5
f 113/1/5 104/1/5 112/1/5
f 113/2/5 110/2/5 109/2/5
f 114/2/5 113/2/5 112/2/5
f 114/2/5 110/2/5 113/2/5
f 115/2/5 110/2/5 114/2/5
f 116/2/5 111/2/5 98/2/5
f 116/1/5 112/1/5 111/1/5
f 117/2/5 114/2/5 112/2/5
f 117/1/5 112/1/5 116/1/5
f 118/2/5 114/2/5 117/2/5
f 119/1/5 115/1/5 114/1/5
f 119/2/5 114/2/5 118/2/5
f 120/2/5 110/2/5 115/2/5
f 120/1/5 115/1/5 119/1/5
f 121/2/5 118/2/5 117/2/5
f 121/2/5 117/2/5 116/2/5
f 122/1/5 119/1/5 118/1/5
f 122/2/5 118/2/5 121/2/5
f 123/2/5 120/2/5 119/2/5
f 123/1/5 119/1/5 122/1/5
f 124/2/5 121/2/5 116/2/5
f 124/2/5 116/2/5 98/2/5
f 125/2/5 121/2/5 124/2/5
f 126/2/5 121/2/5 125/2/5
f 127/1/5 122/1/5 121/1/5
f 127/2/5 121/2/5 126/2/5
f 128/2/5 123/2/5 122/2/5
f 128/1/5 122/1/5 127/1/5
f 129/2/5 97/2/5 29/2/5
f 130/1/5 98/1/5 97/1/5
f 130/2/5 97/2/5 129/2/5
f 131/2/5 124/2/5 98/2/5
f 131/1/5 98/1/5 130/1/5
f 132/2/5 124/2/5 131/2/5
f 133/1/5 125/1/5 124/1/5
f 133/2/5 124/2/5 132/2/5
f 134/2/5 126/2/5 125/2/5
f 134/1/5 125/1/5 133/1/5
f 135/2/5 126/2/5 134/2/5
f 136/2/5 126/2/5 135/2/5
f 137/2/5 134/2/5 133/2/5
f 137/2/5 135/2/5 134/2/5
f 137/1/5 136/1/5 135/1/5
f 138/2/5 126/2/5 136/2/5
f 138/1/5 136/1/5 137/1/5
f 139/2/5 126/2/5 138/2/5
f 140/2/5 126/2/5 139/2/5
f 141/1/5 127/1/5 126/1/5
f 141/2/5 126/2/5 140/2/5
f 142/2/5 128/2/5 127/2/5
f 142/1/5 127/1/5 141/1/5
f 143/2/5 132/2/5 131/2/5
f 143/2/5 131/2/5 130/2/5
f 144/1/5 133/1/5 132/1/5
f 144/2/5 132/2/5 143/2/5
f 145/2/5 137/2/5 133/2/5
f 145/1/5 133/1/5 144/1/5
f 145/2/5 138/2/5 137/2/5
f 146/1/5 139/1/5 138/1/5
f 146/2/5 138/2/5 145/2/5
f 147/2/5 140/2/5 139/2/5
f 147/1/5 139/1/5 146/1/5
f 148/2/5 140/2/5 147/2/5
f 149/2/5 143/2/5 130/2/5
f 150/1/5 144/1/5 143/1/5
f 150/2/5 143/2/5 149/2/5
f 151/2/5 146/2/5 145/2/5
f 151/1/5 144/1/5 150/1/5
f 151/2/5 145/2/5 144/2/5
f 151/2/5 147/2/5 146/2/5
f 152/1/5 148/1/5 147/1/5
f 152/2/5 147/2/5 151/2/5
f 153/2/5 140/2/5 148/2/5
f 153/1/5 148/1/5 152/1/5
f 154/2/5 140/2/5 153/2/5
f 155/2/5 140/2/5 154/2/5
f 156/1/5 141/1/5 140/1/5
f 156/2/5 140/2/5 155/2/5
f 157/2/5 142/2/5 141/2/5
f 157/1/5 141/1/5 156/1/5
f 158/2/5 152/2/5 151/2/5
f 158/2/5 151/2/5 150/2/5
f 158/2/5 153/2/5 152/2/5
f 158/1/5 154/1/5 153/1/5
f 159/2/5 155/2/5 154/2/5
f 159/1/5 154/1/5 158/1/5
f 160/2/5 155/2/5 159/2/5
f 161/1/5 156/1/5 155/1/5
f 161/2/5 155/2/5 160/2/5
f 162/2/5 157/2/5 156/2/5
f 162/1/5 156/1/5 161/1/5
f 163/1/5 130/1/5 129/1/5
f 163/2/5 149/2/5 130/2/5
f 164/2/5 149/2/5 163/2/5
f 165/2/5 149/2/5 164/2/5
f 166/1/5 150/1/5 149/1/5
f 166/2/5 149/2/5 165/2/5
f 167/2/5 158/2/5 150/2/5
f 167/1/5 150/1/5 166/1/5
f 167/2/5 159/2/5 158/2/5
f 168/1/5 160/1/5 159/1/5
f 168/2/5 159/2/5 167/2/5
f 169/2/5 162/2/5 161/2/5
f 169/1/5 160/1/5 168/1/5
f 169/2/5 161/2/5 160/2/5
f 170/2/5 162/2/5 169/2/5
f 171/2/5 129/2/5 29/2/5
f 171/1/5 163/1/5 129/1/5
f 171/1/5 164/1/5 163/1/5
f 172/2/5 165/2/5 164/2/5
f 172/1/5 164/1/5 171/1/5
f 173/2/5 165/2/5 172/2/5
f 174/2/5 165/2/5 173/2/5
f 175/1/5 166/1/5 165/1/5
f 175/2/5 165/2/5 174/2/5
f 176/2/5 167/2/5 166/2/5
f 176/1/5 166/1/5 175/1/5
f 176/2/5 168/2/5 167/2/5
f 176/2/5 169/2/5 168/2/5
f 177/1/5 170/1/5 169/1/5
f 177/2/5 169/2/5 176/2/5
f 178/2/5 162/2/5 170/2/5
f 178/1/5 170/1/5 177/1/5
f 179/2/5 162/2/5 178/2/5
f 180/1/5 173/1/5 172/1/5
f 180/2/5 172/2/5 171/2/5
f 181/2/5 174/2/5 173/2/5
f 181/1/5 173/1/5 180/1/5
f 182/2/5 174/2/5 181/2/5
f 183/2/5 177/2/5 176/2/5
f 183/2/5 176/2/5 175/2/5
f 183/1/5 179/1/5 178/1/5
f 183/2/5 178/2/5 177/2/5
f 184/2/5 162/2/5 179/2/5
f 184/1/5 179/1/5 183/1/5
f 185/2/5 162/2/5 184/2/5
f 186/1/5 182/1/5 181/1/5
f 186/2/5 181/2/5 180/2/5
f 187/2/5 174/2/5 182/2/5
f 187/1/5 182/1/5 186/1/5
f 188/2/5 174/2/5 187/2/5
f 189/2/5 174/2/5 188/2/5
f 190/1/5 175/1/5 174/1/5
f 190/2/5 174/2/5 189/2/5
f 191/2/5 183/2/5 175/2/5
f 191/1/5 175/1/5 190/1/5
f 191/2/5 184/2/5 183/2/5
f 192/1/5 185/1/5 184/1/5
f 192/2/5 184/2/5 191/2/5
f 193/2/5 162/2/5 185/2/5
f 193/1/5 185/1/5 192/1/5
f 194/2/5 162/2/5 193/2/5
f 195/1/5 188/1/5 187/1/5
f 195/2/5 187/2/5 186/2/5
f 196/2/5 189/2/5 188/2/5
f 196/1/5 188/1/5 195/1/5
f 197/2/5 189/2/5 196/2/5
f 198/2/5 189/2/5 197/2/5
f 199/1/5 190/1/5 189/1/5
f 199/2/5 189/2/5 198/2/5
f 200/2/5 192/2/5 191/2/5
f 200/1/5 190/1/5 199/1/5
f 200/2/5 191/2/5 190/2/5
f 200/2/5 193/2/5 192/2/5
f 201/1/5 194/1/5 193/1/5
f 201/2/5 193/2/5 200/2/5
f 202/2/5 162/2/5 194/2/5
f 202/1/5 194/1/5 201/1/5
f 203/1/5 197/1/5 196/1/5
f 203/2/5 196/2/5 195/2/5
f 204/2/5 198/2/5 197/2/5
f 204/1/5 197/1/5 203/1/5
f 205/2/5 198/2/5 204/2/5
f 206/2/5 204/2/5 203/2/5
f 206/1/5 205/1/5 204/1/5
f 207/2/5 198/2/5 205/2/5
f 207/1/5 205/1/5 206/1/5
f 208/2/5 198/2/5 207/2/5
f 209/2/5 198/2/5 208/2/5
f 210/1/5 199/1/5 198/1/5
f 210/2/5 198/2/5 209/2/5
f 211/2/5 201/2/5 200/2/5
f 211/1/5 199/1/5 210/1/5
f 211/2/5 200/2/5 199/2/5
f 211/2/5 202/2/5 201/2/5
f 212/1/5 208/1/5 207/1/5
f 212/2/5 207/2/5 206/2/5
f 213/2/5 209/2/5 208/2/5
f 213/1/5 208/1/5 212/1/5
f 214/2/5 209/2/5 213/2/5
f 215/2/5 213/2/5 212/2/5
f 215/1/5 214/1/5 213/1/5
f 216/2/5 209/2/5 214/2/5
f 216/1/5 214/1/5 215/1/5
f 217/2/5 209/2/5 216/2/5
f 218/2/5 209/2/5 217/2/5
f 219/1/5 210/1/5 209/1/5
f 219/2/5 209/2/5 218/2/5
f 220/2/5 211/2/5 210/2/5
f 220/1/5 210/1/5 219/1/5
f 221/2/5 216/2/5 215/2/5
f 221/1/5 217/1/5 216/1/5
f 222/2/5 218/2/5 217/2/5
f 222/1/5 217/1/5 221/1/5
f 223/2/5 218/2/5 222/2/5
f 224/2/5 218/2/5 223/2/5
f 225/1/5 219/1/5 218/1/5
f 225/2/5 218/2/5 224/2/5
f 226/2/5 220/2/5 219/2/5
f 226/1/5 219/1/5 225/1/5
f 227/2/5 222/2/5 221/2/5
f 227/1/5 223/1/5 222/1/5
f 228/2/5 224/2/5 223/2/5
f 228/1/5 223/1/5 227/1/5
f 229/2/5 228/2/5 227/2/5
f 229/2/5 224/2/5 228/2/5
f 230/1/5 225/1/5 224/1/5
f 230/2/5 224/2/5 229/2/5
f 231/2/5 226/2/5 225/2/5
f 231/1/5 225/1/5 230/1/5
f 232/2/5 229/2/5 227/2/5
f 233/1/5 230/1/5 229/1/5
f 233/2/5 229/2/5 232/2/5
f 234/2/5 231/2/5 230/2/5
f 234/1/5 230/1/5 233/1/5
f 235/2/5 232/2/5 227/2/5
f 236/1/5 233/1/5 232/1/5
f 236/2/5 232/2/5 235/2/5
f 237/2/5 234/2/5 233/2/5
f 237/1/5 233/1/5 236/1/5
f 238/2/5 235/2/5 227/2/5
f 238/1/5 236/1/5 235/1/5
f 239/2/5 237/2/5 236/2/5
f 239/1/5 236/1/5 238/1/5
f 240/2/5 186/2/5 180/2/5
f 240/2/5 171/2/5 29/2/5
f 240/2/5 239/2/5 238/2/5
f 240/2/5 238/2/5 227/2/5
f 240/2/5 180/2/5 171/2/5
f 240/2/5 195/2/5 186/2/5
f 240/2/5 203/2/5 195/2/5
f 240/2/5 212/2/5 206/2/5
f 240/2/5 221/2/5 215/2/5
f 240/2/5 215/2/5 212/2/5
f 240/2/5 206/2/5 203/2/5
f 240/2/5 227/2/5 221/2/5
f 241/2/5 237/2/5 239/2/5
f 241/2/5 239/2/5 240/2/5
f 241/2/5 30/2/5 110/2/5
f 241/2/5 202/2/5 211/2/5
f 241/2/5 162/2/5 202/2/5
f 241/2/5 211/2/5 220/2/5
f 241/2/5 226/2/5 231/2/5
f 241/2/5 220/2/5 226/2/5
f 241/2/5 231/2/5 234/2/5
f 241/2/5 128/2/5 142/2/5
f 241/2/5 157/2/5 162/2/5
f 241/2/5 142/2/5 157/2/5
f 241/2/5 234/2/5 237/2/5
f 241/2/5 110/2/5 120/2/5
f 241/2/5 123/2/5 128/2/5
f 241/2/5 120/2/5 123/2/5
f 242/2/6 243/2/6 244/2/6
f 244/2/6 243/2/6 245/2/6
f 246/2/6 247/2/6 248/2/6
f 248/2/6 247/2/6 249/2/6
f 246/2/6 248/2/6 250/2/6
f 250/2/6 248/2/6 251/2/6
