# MagicaVoxel @ Ephtracy

# group
o 

# material
mtllib Small House.mtl
usemtl palette

# normals
vn -1 0 0
vn 1 0 0
vn 0 0 1
vn 0 0 -1
vn 0 -1 0
vn 0 1 0

# texcoords
vt 0.228516 0.5
vt 0.341797 0.5
vt 0.396484 0.5
vt 0.537109 0.5

# verts
v 0 2.5 -1.4
v 0 2.5 -1.5
v 0 2.5 -1.7
v 0 2.5 -1.8
v 0 2.5 -2
v 0 2.5 -2.1
v 0 2.6 -1.4
v 0 2.6 -1.5
v 0 2.6 -1.7
v 0 2.6 -1.8
v 0 2.6 -2
v 0 2.6 -2.1
v 0.1 2 0
v 0.1 2 -2.2
v 0.1 2.2 -1.4
v 0.1 2.2 -2.1
v 0.1 2.3 0
v 0.1 2.3 -0.9
v 0.1 2.4 -0.9
v 0.1 2.4 -1
v 0.1 2.5 -1
v 0.1 2.5 -1.1
v 0.1 2.5 -1.4
v 0.1 2.5 -1.5
v 0.1 2.5 -1.7
v 0.1 2.5 -1.8
v 0.1 2.5 -2
v 0.1 2.5 -2.1
v 0.1 2.6 -1.1
v 0.1 2.6 -1.2
v 0.1 2.6 -1.4
v 0.1 2.6 -1.5
v 0.1 2.6 -1.7
v 0.1 2.6 -1.8
v 0.1 2.6 -2
v 0.1 2.6 -2.1
v 0.1 2.7 -1.2
v 0.1 2.7 -1.3
v 0.1 2.7 -1.4
v 0.1 2.7 -2.1
v 0.1 2.8 -1.3
v 0.1 2.8 -2
v 0.1 2.9 -2
v 0.1 2.9 -2.2
v 0.5 2.1 -0.7
v 0.5 2.1 -0.8
v 0.5 2.2 -0.7
v 0.5 2.2 -0.8
v 0.5 2.2 -0.9
v 0.5 2.3 -0.8
v 0.5 2.3 -0.9
v 0.5 2.3 -1
v 0.5 2.4 -0.9
v 0.5 2.4 -1
v 0.5 2.4 -1.1
v 0.5 2.5 -1
v 0.5 2.5 -1.1
v 0.5 2.5 -1.2
v 0.5 2.6 -1.1
v 0.5 2.6 -1.2
v 0.5 2.6 -1.3
v 0.5 2.7 -1.2
v 0.5 2.7 -1.3
v 0.5 2.7 -1.4
v 0.5 2.8 -1.3
v 0.5 2.8 -1.4
v 0.7 2.1 -1.4
v 0.7 2.1 -1.5
v 0.7 2.2 -1.4
v 0.7 2.3 -1.4
v 0.7 2.3 -1.5
v 0.7 2.4 -1.4
v 0.7 2.4 -1.5
v 0.7 2.6 -1.4
v 0.7 2.6 -1.5
v 1 2.1 -1.3
v 1 2.1 -1.4
v 1 2.2 -1.3
v 1 2.2 -1.4
v 1 2.3 -1.4
v 1 2.4 -1.4
v 1 2.6 -1.3
v 1 2.6 -1.4
v 1.3 2.4 -1.3
v 1.3 2.4 -1.4
v 1.3 2.6 -1.3
v 1.3 2.6 -1.4
v 1.6 2.1 0
v 1.6 2.1 -0.1
v 1.6 2.3 0
v 1.6 2.3 -0.1
v 1.6 2.4 -1.3
v 1.6 2.4 -1.4
v 1.6 2.6 -1.3
v 1.6 2.6 -1.4
v 1.7 2.8 -1.3
v 1.7 2.8 -1.4
v 1.7 2.8 -2.1
v 1.7 2.8 -2.2
v 1.7 2.9 -1.3
v 1.7 2.9 -1.4
v 1.7 2.9 -2.1
v 1.7 2.9 -2.2
v 1.8 2.1 -0.1
v 1.8 2.1 -1.3
v 1.8 2.1 -1.4
v 1.8 2.1 -2.1
v 1.8 2.2 -1.3
v 1.8 2.2 -1.4
v 1.8 2.2 -2.1
v 1.8 2.3 -0.1
v 1.8 2.3 -1.3
v 1.8 2.5 -1.4
v 1.8 2.5 -1.5
v 1.8 2.5 -1.7
v 1.8 2.5 -1.8
v 1.8 2.5 -2
v 1.8 2.5 -2.1
v 1.8 2.6 -1.4
v 1.8 2.6 -1.5
v 1.8 2.6 -1.7
v 1.8 2.6 -1.8
v 1.8 2.6 -2
v 1.8 2.6 -2.1
v 1.8 2.7 -1.4
v 1.8 2.7 -2.1
v 1.8 2.8 -1.5
v 1.8 2.8 -2
v 1.8 2.9 -1.4
v 1.8 2.9 -1.5
v 1.8 2.9 -2
v 1.8 2.9 -2.1
v 0.2 2.1 -0.1
v 0.2 2.1 -0.8
v 0.2 2.1 -1.4
v 0.2 2.1 -2.1
v 0.2 2.2 -0.8
v 0.2 2.2 -0.9
v 0.2 2.2 -1.4
v 0.2 2.2 -2.1
v 0.2 2.3 -0.1
v 0.2 2.3 -0.9
v 0.2 2.3 -1
v 0.2 2.4 -0.9
v 0.2 2.4 -1
v 0.2 2.4 -1.1
v 0.2 2.5 -1
v 0.2 2.5 -1.1
v 0.2 2.5 -1.2
v 0.2 2.5 -1.4
v 0.2 2.5 -1.5
v 0.2 2.5 -1.7
v 0.2 2.5 -1.8
v 0.2 2.5 -2
v 0.2 2.5 -2.1
v 0.2 2.6 -1.1
v 0.2 2.6 -1.2
v 0.2 2.6 -1.3
v 0.2 2.6 -1.4
v 0.2 2.6 -1.5
v 0.2 2.6 -1.7
v 0.2 2.6 -1.8
v 0.2 2.6 -2
v 0.2 2.6 -2.1
v 0.2 2.7 -1.2
v 0.2 2.7 -1.3
v 0.2 2.7 -2.1
v 0.2 2.8 -1.3
v 0.2 2.8 -2
v 0.2 2.9 -2
v 0.2 2.9 -2.1
v 0.3 2.8 -2.1
v 0.3 2.8 -2.2
v 0.3 2.9 -2.1
v 0.3 2.9 -2.2
v 0.6 2.1 -0.7
v 0.6 2.1 -1.3
v 0.6 2.2 -0.7
v 0.6 2.2 -0.8
v 0.6 2.2 -1.3
v 0.6 2.3 -0.8
v 0.6 2.3 -0.9
v 0.6 2.4 -0.9
v 0.6 2.4 -1
v 0.6 2.5 -1
v 0.6 2.5 -1.1
v 0.6 2.6 -1.1
v 0.6 2.6 -1.2
v 0.6 2.7 -1.2
v 0.6 2.7 -1.3
v 0.7 2.1 -1.3
v 0.7 2.1 -1.4
v 0.7 2.2 -1.3
v 0.7 2.2 -1.4
v 0.7 2.3 -1.4
v 0.7 2.4 -1.4
v 0.7 2.6 -1.3
v 0.7 2.6 -1.4
v 1 2.1 -1.4
v 1 2.1 -1.5
v 1 2.2 -1.4
v 1 2.3 -1.4
v 1 2.3 -1.5
v 1 2.4 -1.4
v 1 2.4 -1.5
v 1 2.6 -1.4
v 1 2.6 -1.5
v 1.1 2.4 -1.3
v 1.1 2.4 -1.4
v 1.1 2.6 -1.3
v 1.1 2.6 -1.4
v 1.3 2.1 0
v 1.3 2.1 -0.1
v 1.3 2.3 0
v 1.3 2.3 -0.1
v 1.4 2.4 -1.3
v 1.4 2.4 -1.4
v 1.4 2.6 -1.3
v 1.4 2.6 -1.4
v 1.9 2 0
v 1.9 2 -2.2
v 1.9 2.2 -1.4
v 1.9 2.2 -2.1
v 1.9 2.3 0
v 1.9 2.3 -1.3
v 1.9 2.5 -1.4
v 1.9 2.5 -1.5
v 1.9 2.5 -1.7
v 1.9 2.5 -1.8
v 1.9 2.5 -2
v 1.9 2.5 -2.1
v 1.9 2.6 -1.4
v 1.9 2.6 -1.5
v 1.9 2.6 -1.7
v 1.9 2.6 -1.8
v 1.9 2.6 -2
v 1.9 2.6 -2.1
v 1.9 2.7 -1.4
v 1.9 2.7 -2.1
v 1.9 2.8 -1.5
v 1.9 2.8 -2
v 1.9 2.9 -1.3
v 1.9 2.9 -1.5
v 1.9 2.9 -2
v 1.9 2.9 -2.2
v 2 2.5 -1.4
v 2 2.5 -1.5
v 2 2.5 -1.7
v 2 2.5 -1.8
v 2 2.5 -2
v 2 2.5 -2.1
v 2 2.6 -1.4
v 2 2.6 -1.5
v 2 2.6 -1.7
v 2 2.6 -1.8
v 2 2.6 -2
v 2 2.6 -2.1
v 0.1 2 0
v 0.1 2.3 0
v 1.3 2.1 0
v 1.3 2.3 0
v 1.6 2.1 0
v 1.6 2.3 0
v 1.9 2 0
v 1.9 2.3 0
v 0.5 2.1 -0.7
v 0.5 2.2 -0.7
v 0.6 2.1 -0.7
v 0.6 2.2 -0.7
v 0.2 2.1 -0.8
v 0.2 2.2 -0.8
v 0.5 2.1 -0.8
v 0.5 2.2 -0.8
v 0.5 2.3 -0.8
v 0.6 2.2 -0.8
v 0.6 2.3 -0.8
v 0.1 2.3 -0.9
v 0.1 2.4 -0.9
v 0.2 2.2 -0.9
v 0.2 2.3 -0.9
v 0.2 2.4 -0.9
v 0.5 2.2 -0.9
v 0.5 2.3 -0.9
v 0.5 2.4 -0.9
v 0.6 2.3 -0.9
v 0.6 2.4 -0.9
v 0.1 2.4 -1
v 0.1 2.5 -1
v 0.2 2.3 -1
v 0.2 2.4 -1
v 0.2 2.5 -1
v 0.5 2.3 -1
v 0.5 2.4 -1
v 0.5 2.5 -1
v 0.6 2.4 -1
v 0.6 2.5 -1
v 0.1 2.5 -1.1
v 0.1 2.6 -1.1
v 0.2 2.4 -1.1
v 0.2 2.5 -1.1
v 0.2 2.6 -1.1
v 0.5 2.4 -1.1
v 0.5 2.5 -1.1
v 0.5 2.6 -1.1
v 0.6 2.5 -1.1
v 0.6 2.6 -1.1
v 0.1 2.6 -1.2
v 0.1 2.7 -1.2
v 0.2 2.5 -1.2
v 0.2 2.6 -1.2
v 0.2 2.7 -1.2
v 0.5 2.5 -1.2
v 0.5 2.6 -1.2
v 0.5 2.7 -1.2
v 0.6 2.6 -1.2
v 0.6 2.7 -1.2
v 0.1 2.7 -1.3
v 0.1 2.8 -1.3
v 0.2 2.6 -1.3
v 0.2 2.7 -1.3
v 0.2 2.8 -1.3
v 0.5 2.6 -1.3
v 0.5 2.7 -1.3
v 0.5 2.8 -1.3
v 0.6 2.1 -1.3
v 0.6 2.2 -1.3
v 0.6 2.7 -1.3
v 0.7 2.1 -1.3
v 0.7 2.2 -1.3
v 0.7 2.6 -1.3
v 1 2.1 -1.3
v 1 2.2 -1.3
v 1 2.6 -1.3
v 1.1 2.4 -1.3
v 1.1 2.6 -1.3
v 1.3 2.4 -1.3
v 1.3 2.6 -1.3
v 1.4 2.4 -1.3
v 1.4 2.6 -1.3
v 1.6 2.4 -1.3
v 1.6 2.6 -1.3
v 1.7 2.8 -1.3
v 1.7 2.9 -1.3
v 1.8 2.1 -1.3
v 1.8 2.2 -1.3
v 1.8 2.3 -1.3
v 1.8 2.7 -1.3
v 1.9 2.3 -1.3
v 1.9 2.9 -1.3
v 0 2.5 -1.4
v 0 2.6 -1.4
v 0.1 2.5 -1.4
v 0.1 2.6 -1.4
v 0.7 2.1 -1.4
v 0.7 2.2 -1.4
v 0.7 2.3 -1.4
v 0.7 2.4 -1.4
v 0.7 2.6 -1.4
v 1 2.1 -1.4
v 1 2.2 -1.4
v 1 2.3 -1.4
v 1 2.4 -1.4
v 1 2.6 -1.4
v 1.9 2.5 -1.4
v 1.9 2.6 -1.4
v 2 2.5 -1.4
v 2 2.6 -1.4
v 0 2.5 -1.7
v 0 2.6 -1.7
v 0.1 2.5 -1.7
v 0.1 2.6 -1.7
v 1.9 2.5 -1.7
v 1.9 2.6 -1.7
v 2 2.5 -1.7
v 2 2.6 -1.7
v 0 2.5 -2
v 0 2.6 -2
v 0.1 2.5 -2
v 0.1 2.6 -2
v 0.1 2.8 -2
v 0.1 2.9 -2
v 0.2 2.8 -2
v 0.2 2.9 -2
v 1.8 2.8 -2
v 1.8 2.9 -2
v 1.9 2.5 -2
v 1.9 2.6 -2
v 1.9 2.8 -2
v 1.9 2.9 -2
v 2 2.5 -2
v 2 2.6 -2
v 0.2 2.1 -2.1
v 0.2 2.2 -2.1
v 0.2 2.5 -2.1
v 0.2 2.6 -2.1
v 0.2 2.7 -2.1
v 0.2 2.9 -2.1
v 0.3 2.8 -2.1
v 0.3 2.9 -2.1
v 1.7 2.8 -2.1
v 1.7 2.9 -2.1
v 1.8 2.1 -2.1
v 1.8 2.2 -2.1
v 1.8 2.5 -2.1
v 1.8 2.6 -2.1
v 1.8 2.7 -2.1
v 1.8 2.9 -2.1
v 0.2 2.1 -0.1
v 0.2 2.3 -0.1
v 1.3 2.1 -0.1
v 1.3 2.3 -0.1
v 1.6 2.1 -0.1
v 1.6 2.3 -0.1
v 1.8 2.1 -0.1
v 1.8 2.3 -0.1
v 0.2 2.1 -1.4
v 0.2 2.2 -1.4
v 0.2 2.5 -1.4
v 0.2 2.6 -1.4
v 0.5 2.7 -1.4
v 0.5 2.8 -1.4
v 0.6 2.2 -1.4
v 0.6 2.6 -1.4
v 0.7 2.1 -1.4
v 0.7 2.2 -1.4
v 0.7 2.3 -1.4
v 0.7 2.4 -1.4
v 0.7 2.6 -1.4
v 1 2.1 -1.4
v 1 2.2 -1.4
v 1 2.3 -1.4
v 1 2.4 -1.4
v 1 2.6 -1.4
v 1.1 2.4 -1.4
v 1.1 2.6 -1.4
v 1.3 2.4 -1.4
v 1.3 2.6 -1.4
v 1.4 2.4 -1.4
v 1.4 2.6 -1.4
v 1.6 2.4 -1.4
v 1.6 2.6 -1.4
v 1.7 2.8 -1.4
v 1.7 2.9 -1.4
v 1.8 2.1 -1.4
v 1.8 2.2 -1.4
v 1.8 2.5 -1.4
v 1.8 2.6 -1.4
v 1.8 2.7 -1.4
v 1.8 2.9 -1.4
v 0 2.5 -1.5
v 0 2.6 -1.5
v 0.1 2.5 -1.5
v 0.1 2.6 -1.5
v 0.7 2.1 -1.5
v 0.7 2.3 -1.5
v 0.7 2.4 -1.5
v 0.7 2.6 -1.5
v 1 2.1 -1.5
v 1 2.3 -1.5
v 1 2.4 -1.5
v 1 2.6 -1.5
v 1.8 2.8 -1.5
v 1.8 2.9 -1.5
v 1.9 2.5 -1.5
v 1.9 2.6 -1.5
v 1.9 2.8 -1.5
v 1.9 2.9 -1.5
v 2 2.5 -1.5
v 2 2.6 -1.5
v 0 2.5 -1.8
v 0 2.6 -1.8
v 0.1 2.5 -1.8
v 0.1 2.6 -1.8
v 1.9 2.5 -1.8
v 1.9 2.6 -1.8
v 2 2.5 -1.8
v 2 2.6 -1.8
v 0 2.5 -2.1
v 0 2.6 -2.1
v 0.1 2.5 -2.1
v 0.1 2.6 -2.1
v 1.9 2.5 -2.1
v 1.9 2.6 -2.1
v 2 2.5 -2.1
v 2 2.6 -2.1
v 0.1 2 -2.2
v 0.1 2.9 -2.2
v 0.2 2.2 -2.2
v 0.2 2.7 -2.2
v 0.3 2.8 -2.2
v 0.3 2.9 -2.2
v 1.7 2.8 -2.2
v 1.7 2.9 -2.2
v 1.8 2.2 -2.2
v 1.8 2.7 -2.2
v 1.9 2 -2.2
v 1.9 2.9 -2.2
v 0.1 2 0
v 1.9 2 0
v 0.1 2 -2.2
v 1.9 2 -2.2
v 0 2.5 -1.4
v 0.1 2.5 -1.4
v 1.9 2.5 -1.4
v 2 2.5 -1.4
v 0 2.5 -1.5
v 0.1 2.5 -1.5
v 1.9 2.5 -1.5
v 2 2.5 -1.5
v 0 2.5 -1.7
v 0.1 2.5 -1.7
v 1.9 2.5 -1.7
v 2 2.5 -1.7
v 0 2.5 -1.8
v 0.1 2.5 -1.8
v 1.9 2.5 -1.8
v 2 2.5 -1.8
v 0 2.5 -2
v 0.1 2.5 -2
v 1.9 2.5 -2
v 2 2.5 -2
v 0 2.5 -2.1
v 0.1 2.5 -2.1
v 1.9 2.5 -2.1
v 2 2.5 -2.1
v 0.7 2.6 -1.3
v 1 2.6 -1.3
v 1.1 2.6 -1.3
v 1.3 2.6 -1.3
v 1.4 2.6 -1.3
v 1.6 2.6 -1.3
v 0.2 2.6 -1.4
v 0.6 2.6 -1.4
v 0.7 2.6 -1.4
v 1 2.6 -1.4
v 1.1 2.6 -1.4
v 1.3 2.6 -1.4
v 1.4 2.6 -1.4
v 1.6 2.6 -1.4
v 1.8 2.6 -1.4
v 0.2 2.6 -1.5
v 0.7 2.6 -1.5
v 1 2.6 -1.5
v 1.8 2.6 -1.5
v 0.2 2.6 -1.7
v 1.8 2.6 -1.7
v 0.2 2.6 -1.8
v 1.8 2.6 -1.8
v 0.2 2.6 -2
v 1.8 2.6 -2
v 0.2 2.6 -2.1
v 1.8 2.6 -2.1
v 1.3 2.1 0
v 1.6 2.1 0
v 0.2 2.1 -0.1
v 1.3 2.1 -0.1
v 1.6 2.1 -0.1
v 1.8 2.1 -0.1
v 0.5 2.1 -0.7
v 0.6 2.1 -0.7
v 0.2 2.1 -0.8
v 0.5 2.1 -0.8
v 0.6 2.1 -1.3
v 0.7 2.1 -1.3
v 1 2.1 -1.3
v 1.8 2.1 -1.3
v 0.2 2.1 -1.4
v 0.7 2.1 -1.4
v 1 2.1 -1.4
v 1.8 2.1 -1.4
v 0.7 2.1 -1.5
v 1 2.1 -1.5
v 0.2 2.1 -2.1
v 1.8 2.1 -2.1
v 0.5 2.2 -0.7
v 0.6 2.2 -0.7
v 0.2 2.2 -0.8
v 0.5 2.2 -0.8
v 0.6 2.2 -0.8
v 0.2 2.2 -0.9
v 0.5 2.2 -0.9
v 0.1 2.3 0
v 1.3 2.3 0
v 1.6 2.3 0
v 1.9 2.3 0
v 0.2 2.3 -0.1
v 1.3 2.3 -0.1
v 1.6 2.3 -0.1
v 1.8 2.3 -0.1
v 0.5 2.3 -0.8
v 0.6 2.3 -0.8
v 0.1 2.3 -0.9
v 0.2 2.3 -0.9
v 0.5 2.3 -0.9
v 0.6 2.3 -0.9
v 0.2 2.3 -1
v 0.5 2.3 -1
v 1.8 2.3 -1.3
v 1.9 2.3 -1.3
v 0.1 2.4 -0.9
v 0.2 2.4 -0.9
v 0.5 2.4 -0.9
v 0.6 2.4 -0.9
v 0.1 2.4 -1
v 0.2 2.4 -1
v 0.5 2.4 -1
v 0.6 2.4 -1
v 0.2 2.4 -1.1
v 0.5 2.4 -1.1
v 1.1 2.4 -1.3
v 1.3 2.4 -1.3
v 1.4 2.4 -1.3
v 1.6 2.4 -1.3
v 1.1 2.4 -1.4
v 1.3 2.4 -1.4
v 1.4 2.4 -1.4
v 1.6 2.4 -1.4
v 0.1 2.5 -1
v 0.2 2.5 -1
v 0.5 2.5 -1
v 0.6 2.5 -1
v 0.1 2.5 -1.1
v 0.2 2.5 -1.1
v 0.5 2.5 -1.1
v 0.6 2.5 -1.1
v 0.2 2.5 -1.2
v 0.5 2.5 -1.2
v 0.1 2.6 -1.1
v 0.2 2.6 -1.1
v 0.5 2.6 -1.1
v 0.6 2.6 -1.1
v 0.1 2.6 -1.2
v 0.2 2.6 -1.2
v 0.5 2.6 -1.2
v 0.6 2.6 -1.2
v 0.2 2.6 -1.3
v 0.5 2.6 -1.3
v 0 2.6 -1.4
v 0.1 2.6 -1.4
v 1.9 2.6 -1.4
v 2 2.6 -1.4
v 0 2.6 -1.5
v 0.1 2.6 -1.5
v 1.9 2.6 -1.5
v 2 2.6 -1.5
v 0 2.6 -1.7
v 0.1 2.6 -1.7
v 1.9 2.6 -1.7
v 2 2.6 -1.7
v 0 2.6 -1.8
v 0.1 2.6 -1.8
v 1.9 2.6 -1.8
v 2 2.6 -1.8
v 0 2.6 -2
v 0.1 2.6 -2
v 1.9 2.6 -2
v 2 2.6 -2
v 0 2.6 -2.1
v 0.1 2.6 -2.1
v 1.9 2.6 -2.1
v 2 2.6 -2.1
v 0.1 2.7 -1.2
v 0.2 2.7 -1.2
v 0.5 2.7 -1.2
v 0.6 2.7 -1.2
v 0.1 2.7 -1.3
v 0.2 2.7 -1.3
v 0.5 2.7 -1.3
v 0.6 2.7 -1.3
v 0.5 2.7 -1.4
v 1.8 2.7 -1.4
v 0.2 2.7 -2.1
v 1.8 2.7 -2.1
v 0.1 2.8 -1.3
v 0.2 2.8 -1.3
v 0.5 2.8 -1.3
v 1.7 2.8 -1.3
v 0.5 2.8 -1.4
v 1.7 2.8 -1.4
v 1.8 2.8 -1.5
v 1.9 2.8 -1.5
v 0.1 2.8 -2
v 0.2 2.8 -2
v 1.8 2.8 -2
v 1.9 2.8 -2
v 0.3 2.8 -2.1
v 1.7 2.8 -2.1
v 0.3 2.8 -2.2
v 1.7 2.8 -2.2
v 1.7 2.9 -1.3
v 1.9 2.9 -1.3
v 1.7 2.9 -1.4
v 1.8 2.9 -1.4
v 1.8 2.9 -1.5
v 1.9 2.9 -1.5
v 0.1 2.9 -2
v 0.2 2.9 -2
v 1.8 2.9 -2
v 1.9 2.9 -2
v 0.2 2.9 -2.1
v 0.3 2.9 -2.1
v 1.7 2.9 -2.1
v 1.8 2.9 -2.1
v 0.1 2.9 -2.2
v 0.3 2.9 -2.2
v 1.7 2.9 -2.2
v 1.9 2.9 -2.2

# faces
f 7/4/1 2/4/1 1/4/1
f 8/4/1 2/4/1 7/4/1
f 9/4/1 4/4/1 3/4/1
f 10/4/1 4/4/1 9/4/1
f 11/4/1 6/4/1 5/4/1
f 12/4/1 6/4/1 11/4/1
f 15/2/1 14/2/1 13/2/1
f 16/2/1 14/2/1 15/2/1
f 17/2/1 15/2/1 13/2/1
f 18/2/1 15/2/1 17/2/1
f 19/2/1 15/2/1 18/2/1
f 20/2/1 15/2/1 19/2/1
f 21/2/1 15/2/1 20/2/1
f 22/2/1 15/2/1 21/2/1
f 23/1/1 16/1/1 15/1/1
f 23/2/1 15/2/1 22/2/1
f 24/1/1 16/1/1 23/1/1
f 25/1/1 16/1/1 24/1/1
f 26/1/1 16/1/1 25/1/1
f 27/1/1 16/1/1 26/1/1
f 28/2/1 14/2/1 16/2/1
f 28/1/1 16/1/1 27/1/1
f 29/2/1 23/2/1 22/2/1
f 30/2/1 23/2/1 29/2/1
f 31/2/1 23/2/1 30/2/1
f 32/1/1 25/1/1 24/1/1
f 33/1/1 25/1/1 32/1/1
f 34/1/1 27/1/1 26/1/1
f 35/1/1 27/1/1 34/1/1
f 36/2/1 14/2/1 28/2/1
f 37/2/1 31/2/1 30/2/1
f 38/2/1 31/2/1 37/2/1
f 39/1/1 33/1/1 32/1/1
f 39/2/1 31/2/1 38/2/1
f 39/1/1 35/1/1 34/1/1
f 39/1/1 36/1/1 35/1/1
f 39/1/1 32/1/1 31/1/1
f 39/1/1 34/1/1 33/1/1
f 40/2/1 14/2/1 36/2/1
f 40/1/1 36/1/1 39/1/1
f 41/2/1 39/2/1 38/2/1
f 41/2/1 40/2/1 39/2/1
f 42/2/1 40/2/1 41/2/1
f 43/2/1 40/2/1 42/2/1
f 44/2/1 14/2/1 40/2/1
f 44/2/1 40/2/1 43/2/1
f 47/2/1 46/2/1 45/2/1
f 48/2/1 46/2/1 47/2/1
f 50/2/1 49/2/1 48/2/1
f 51/2/1 49/2/1 50/2/1
f 53/2/1 52/2/1 51/2/1
f 54/2/1 52/2/1 53/2/1
f 56/2/1 55/2/1 54/2/1
f 57/2/1 55/2/1 56/2/1
f 59/2/1 58/2/1 57/2/1
f 60/2/1 58/2/1 59/2/1
f 62/2/1 61/2/1 60/2/1
f 63/2/1 61/2/1 62/2/1
f 65/2/1 64/2/1 63/2/1
f 66/2/1 64/2/1 65/2/1
f 69/4/1 68/4/1 67/4/1
f 70/4/1 68/4/1 69/4/1
f 71/4/1 68/4/1 70/4/1
f 72/3/1 71/3/1 70/3/1
f 73/3/1 71/3/1 72/3/1
f 74/4/1 73/4/1 72/4/1
f 75/4/1 73/4/1 74/4/1
f 78/2/1 77/2/1 76/2/1
f 79/2/1 77/2/1 78/2/1
f 80/1/1 79/1/1 78/1/1
f 81/1/1 80/1/1 78/1/1
f 82/1/1 81/1/1 78/1/1
f 83/1/1 81/1/1 82/1/1
f 86/1/1 85/1/1 84/1/1
f 87/1/1 85/1/1 86/1/1
f 90/2/1 89/2/1 88/2/1
f 91/2/1 89/2/1 90/2/1
f 94/1/1 93/1/1 92/1/1
f 95/1/1 93/1/1 94/1/1
f 100/2/1 97/2/1 96/2/1
f 101/2/1 97/2/1 100/2/1
f 102/2/1 99/2/1 98/2/1
f 103/2/1 99/2/1 102/2/1
f 108/2/1 105/2/1 104/2/1
f 109/2/1 107/2/1 106/2/1
f 110/2/1 107/2/1 109/2/1
f 111/2/1 108/2/1 104/2/1
f 112/2/1 108/2/1 111/2/1
f 113/1/1 110/1/1 109/1/1
f 114/1/1 110/1/1 113/1/1
f 115/1/1 110/1/1 114/1/1
f 116/1/1 110/1/1 115/1/1
f 117/1/1 110/1/1 116/1/1
f 118/1/1 110/1/1 117/1/1
f 119/2/1 114/2/1 113/2/1
f 120/1/1 115/1/1 114/1/1
f 120/2/1 114/2/1 119/2/1
f 121/2/1 116/2/1 115/2/1
f 121/1/1 115/1/1 120/1/1
f 122/1/1 117/1/1 116/1/1
f 122/2/1 116/2/1 121/2/1
f 123/2/1 118/2/1 117/2/1
f 123/1/1 117/1/1 122/1/1
f 124/2/1 118/2/1 123/2/1
f 127/2/1 126/2/1 125/2/1
f 128/2/1 126/2/1 127/2/1
f 129/2/1 127/2/1 125/2/1
f 130/2/1 127/2/1 129/2/1
f 131/2/1 126/2/1 128/2/1
f 132/2/1 126/2/1 131/2/1
f 133/2/2 134/2/2 137/2/2
f 135/2/2 136/2/2 139/2/2
f 139/2/2 136/2/2 140/2/2
f 137/2/2 138/2/2 141/2/2
f 133/2/2 137/2/2 141/2/2
f 141/2/2 138/2/2 142/2/2
f 142/2/2 143/2/2 144/2/2
f 144/2/2 143/2/2 145/2/2
f 145/2/2 146/2/2 147/2/2
f 147/2/2 146/2/2 148/2/2
f 139/1/2 140/1/2 150/1/2
f 150/1/2 140/1/2 151/1/2
f 151/1/2 140/1/2 152/1/2
f 152/1/2 140/1/2 153/1/2
f 153/1/2 140/1/2 154/1/2
f 154/1/2 140/1/2 155/1/2
f 148/2/2 149/2/2 156/2/2
f 156/2/2 149/2/2 157/2/2
f 150/2/2 151/2/2 159/2/2
f 151/1/2 152/1/2 160/1/2
f 159/2/2 151/2/2 160/2/2
f 152/2/2 153/2/2 161/2/2
f 160/1/2 152/1/2 161/1/2
f 153/1/2 154/1/2 162/1/2
f 161/2/2 153/2/2 162/2/2
f 154/2/2 155/2/2 163/2/2
f 162/1/2 154/1/2 163/1/2
f 163/2/2 155/2/2 164/2/2
f 157/2/2 158/2/2 165/2/2
f 165/2/2 158/2/2 166/2/2
f 166/2/2 167/2/2 168/2/2
f 168/2/2 167/2/2 169/2/2
f 169/2/2 167/2/2 170/2/2
f 170/2/2 167/2/2 171/2/2
f 172/2/2 173/2/2 174/2/2
f 174/2/2 173/2/2 175/2/2
f 176/2/2 177/2/2 178/2/2
f 178/2/2 177/2/2 179/2/2
f 179/2/2 177/2/2 180/2/2
f 179/2/2 180/2/2 181/2/2
f 181/2/2 180/2/2 182/2/2
f 182/2/2 180/2/2 183/2/2
f 183/2/2 180/2/2 184/2/2
f 184/2/2 180/2/2 185/2/2
f 185/2/2 180/2/2 186/2/2
f 186/2/2 180/2/2 187/2/2
f 187/2/2 180/2/2 188/2/2
f 188/2/2 180/2/2 189/2/2
f 189/2/2 180/2/2 190/2/2
f 191/2/2 192/2/2 193/2/2
f 193/2/2 192/2/2 194/2/2
f 193/1/2 194/1/2 195/1/2
f 193/1/2 195/1/2 196/1/2
f 193/1/2 196/1/2 197/1/2
f 197/1/2 196/1/2 198/1/2
f 199/4/2 200/4/2 201/4/2
f 201/4/2 200/4/2 202/4/2
f 202/4/2 200/4/2 203/4/2
f 202/3/2 203/3/2 204/3/2
f 204/3/2 203/3/2 205/3/2
f 204/4/2 205/4/2 206/4/2
f 206/4/2 205/4/2 207/4/2
f 208/1/2 209/1/2 210/1/2
f 210/1/2 209/1/2 211/1/2
f 212/2/2 213/2/2 214/2/2
f 214/2/2 213/2/2 215/2/2
f 216/1/2 217/1/2 218/1/2
f 218/1/2 217/1/2 219/1/2
f 220/2/2 221/2/2 222/2/2
f 222/2/2 221/2/2 223/2/2
f 220/2/2 222/2/2 224/2/2
f 224/2/2 222/2/2 225/2/2
f 222/1/2 223/1/2 226/1/2
f 225/2/2 222/2/2 226/2/2
f 226/1/2 223/1/2 227/1/2
f 227/1/2 223/1/2 228/1/2
f 228/1/2 223/1/2 229/1/2
f 229/1/2 223/1/2 230/1/2
f 223/2/2 221/2/2 231/2/2
f 230/1/2 223/1/2 231/1/2
f 225/2/2 226/2/2 232/2/2
f 227/1/2 228/1/2 233/1/2
f 233/1/2 228/1/2 234/1/2
f 229/1/2 230/1/2 235/1/2
f 235/1/2 230/1/2 236/1/2
f 231/2/2 221/2/2 237/2/2
f 233/1/2 234/1/2 238/1/2
f 236/1/2 237/1/2 238/1/2
f 235/1/2 236/1/2 238/1/2
f 225/2/2 232/2/2 238/2/2
f 234/1/2 235/1/2 238/1/2
f 232/1/2 233/1/2 238/1/2
f 237/2/2 221/2/2 239/2/2
f 238/1/2 237/1/2 239/1/2
f 238/2/2 239/2/2 240/2/2
f 240/2/2 239/2/2 241/2/2
f 225/2/2 238/2/2 242/2/2
f 238/2/2 240/2/2 242/2/2
f 242/2/2 240/2/2 243/2/2
f 241/2/2 239/2/2 244/2/2
f 239/2/2 221/2/2 245/2/2
f 244/2/2 239/2/2 245/2/2
f 246/4/2 247/4/2 252/4/2
f 252/4/2 247/4/2 253/4/2
f 248/4/2 249/4/2 254/4/2
f 254/4/2 249/4/2 255/4/2
f 250/4/2 251/4/2 256/4/2
f 256/4/2 251/4/2 257/4/2
f 260/2/3 259/2/3 258/2/3
f 261/2/3 259/2/3 260/2/3
f 262/2/3 260/2/3 258/2/3
f 264/2/3 262/2/3 258/2/3
f 264/2/3 263/2/3 262/2/3
f 265/2/3 263/2/3 264/2/3
f 268/2/3 267/2/3 266/2/3
f 269/2/3 267/2/3 268/2/3
f 272/2/3 271/2/3 270/2/3
f 273/2/3 271/2/3 272/2/3
f 275/2/3 274/2/3 273/2/3
f 276/2/3 274/2/3 275/2/3
f 280/2/3 278/2/3 277/2/3
f 281/2/3 278/2/3 280/2/3
f 282/2/3 280/2/3 279/2/3
f 283/2/3 280/2/3 282/2/3
f 285/2/3 284/2/3 283/2/3
f 286/2/3 284/2/3 285/2/3
f 290/2/3 288/2/3 287/2/3
f 291/2/3 288/2/3 290/2/3
f 292/2/3 290/2/3 289/2/3
f 293/2/3 290/2/3 292/2/3
f 295/2/3 294/2/3 293/2/3
f 296/2/3 294/2/3 295/2/3
f 300/2/3 298/2/3 297/2/3
f 301/2/3 298/2/3 300/2/3
f 302/2/3 300/2/3 299/2/3
f 303/2/3 300/2/3 302/2/3
f 305/2/3 304/2/3 303/2/3
f 306/2/3 304/2/3 305/2/3
f 310/2/3 308/2/3 307/2/3
f 311/2/3 308/2/3 310/2/3
f 312/2/3 310/2/3 309/2/3
f 313/2/3 310/2/3 312/2/3
f 315/2/3 314/2/3 313/2/3
f 316/2/3 314/2/3 315/2/3
f 320/2/3 318/2/3 317/2/3
f 321/2/3 318/2/3 320/2/3
f 322/2/3 320/2/3 319/2/3
f 323/2/3 320/2/3 322/2/3
f 327/2/3 324/2/3 323/2/3
f 328/2/3 326/2/3 325/2/3
f 329/1/3 327/1/3 326/1/3
f 329/2/3 326/2/3 328/2/3
f 330/1/3 327/1/3 329/1/3
f 333/1/3 327/1/3 330/1/3
f 334/1/3 333/1/3 332/1/3
f 335/1/3 327/1/3 333/1/3
f 335/1/3 333/1/3 334/1/3
f 336/1/3 334/1/3 332/1/3
f 337/1/3 327/1/3 335/1/3
f 338/1/3 336/1/3 332/1/3
f 338/1/3 337/1/3 336/1/3
f 339/1/3 327/1/3 337/1/3
f 339/1/3 337/1/3 338/1/3
f 340/1/3 338/1/3 332/1/3
f 341/1/3 327/1/3 339/1/3
f 342/2/3 324/2/3 327/2/3
f 344/2/3 332/2/3 331/2/3
f 345/1/3 341/1/3 340/1/3
f 345/2/3 332/2/3 344/2/3
f 345/1/3 340/1/3 332/1/3
f 346/1/3 341/1/3 345/1/3
f 347/2/3 342/2/3 327/2/3
f 347/1/3 341/1/3 346/1/3
f 347/2/3 343/2/3 342/2/3
f 347/1/3 327/1/3 341/1/3
f 348/2/3 347/2/3 346/2/3
f 349/2/3 343/2/3 347/2/3
f 349/2/3 347/2/3 348/2/3
f 352/4/3 351/4/3 350/4/3
f 353/4/3 351/4/3 352/4/3
f 359/4/3 355/4/3 354/4/3
f 359/4/3 356/4/3 355/4/3
f 360/4/3 356/4/3 359/4/3
f 361/3/3 357/3/3 356/3/3
f 361/4/3 356/4/3 360/4/3
f 362/4/3 358/4/3 357/4/3
f 362/3/3 357/3/3 361/3/3
f 363/4/3 358/4/3 362/4/3
f 366/4/3 365/4/3 364/4/3
f 367/4/3 365/4/3 366/4/3
f 370/4/3 369/4/3 368/4/3
f 371/4/3 369/4/3 370/4/3
f 374/4/3 373/4/3 372/4/3
f 375/4/3 373/4/3 374/4/3
f 378/4/3 377/4/3 376/4/3
f 379/4/3 377/4/3 378/4/3
f 382/2/3 381/2/3 380/2/3
f 383/2/3 381/2/3 382/2/3
f 388/2/3 385/2/3 384/2/3
f 389/2/3 385/2/3 388/2/3
f 390/4/3 387/4/3 386/4/3
f 391/4/3 387/4/3 390/4/3
f 398/2/3 397/2/3 396/2/3
f 399/2/3 397/2/3 398/2/3
f 400/2/3 398/2/3 396/2/3
f 402/2/3 393/2/3 392/2/3
f 403/1/3 394/1/3 393/1/3
f 403/2/3 393/2/3 402/2/3
f 403/1/3 395/1/3 394/1/3
f 404/1/3 395/1/3 403/1/3
f 405/1/3 395/1/3 404/1/3
f 406/2/3 401/2/3 400/2/3
f 406/2/3 400/2/3 396/2/3
f 407/2/3 401/2/3 406/2/3
f 408/2/4 409/2/4 410/2/4
f 410/2/4 409/2/4 411/2/4
f 412/2/4 413/2/4 414/2/4
f 414/2/4 413/2/4 415/2/4
f 416/2/4 417/2/4 422/2/4
f 417/2/4 418/2/4 422/2/4
f 418/2/4 419/2/4 422/2/4
f 422/2/4 419/2/4 423/2/4
f 416/2/4 422/2/4 424/2/4
f 422/1/4 423/1/4 425/1/4
f 424/2/4 422/2/4 425/2/4
f 425/1/4 423/1/4 426/1/4
f 426/1/4 423/1/4 427/1/4
f 427/1/4 423/1/4 428/1/4
f 430/1/4 431/1/4 434/1/4
f 432/1/4 433/1/4 434/1/4
f 431/1/4 432/1/4 434/1/4
f 434/1/4 433/1/4 435/1/4
f 430/1/4 434/1/4 436/1/4
f 430/1/4 436/1/4 438/1/4
f 436/1/4 437/1/4 438/1/4
f 438/1/4 437/1/4 439/1/4
f 430/1/4 438/1/4 440/1/4
f 420/2/4 421/2/4 442/2/4
f 429/2/4 430/2/4 444/2/4
f 440/1/4 441/1/4 445/1/4
f 444/2/4 430/2/4 445/2/4
f 430/1/4 440/1/4 445/1/4
f 445/1/4 441/1/4 446/1/4
f 446/1/4 441/1/4 447/1/4
f 420/2/4 442/2/4 448/2/4
f 442/2/4 443/2/4 448/2/4
f 448/2/4 443/2/4 449/2/4
f 450/4/4 451/4/4 452/4/4
f 452/4/4 451/4/4 453/4/4
f 454/4/4 455/4/4 458/4/4
f 455/3/4 456/3/4 459/3/4
f 458/4/4 455/4/4 459/4/4
f 456/4/4 457/4/4 460/4/4
f 459/3/4 456/3/4 460/3/4
f 460/4/4 457/4/4 461/4/4
f 462/2/4 463/2/4 466/2/4
f 466/2/4 463/2/4 467/2/4
f 464/4/4 465/4/4 468/4/4
f 468/4/4 465/4/4 469/4/4
f 470/4/4 471/4/4 472/4/4
f 472/4/4 471/4/4 473/4/4
f 474/4/4 475/4/4 476/4/4
f 476/4/4 475/4/4 477/4/4
f 478/4/4 479/4/4 480/4/4
f 480/4/4 479/4/4 481/4/4
f 482/4/4 483/4/4 484/4/4
f 484/4/4 483/4/4 485/4/4
f 486/2/4 487/2/4 488/2/4
f 488/2/4 487/2/4 489/2/4
f 489/2/4 487/2/4 490/2/4
f 490/2/4 487/2/4 491/2/4
f 489/2/4 490/2/4 492/2/4
f 486/2/4 488/2/4 494/2/4
f 488/1/4 489/1/4 494/1/4
f 492/2/4 493/2/4 495/2/4
f 494/1/4 489/1/4 495/1/4
f 489/2/4 492/2/4 495/2/4
f 486/2/4 494/2/4 496/2/4
f 494/2/4 495/2/4 496/2/4
f 495/2/4 493/2/4 497/2/4
f 496/2/4 495/2/4 497/2/4
f 500/2/5 499/2/5 498/2/5
f 501/2/5 499/2/5 500/2/5
f 506/4/5 503/4/5 502/4/5
f 507/4/5 503/4/5 506/4/5
f 508/4/5 505/4/5 504/4/5
f 509/4/5 505/4/5 508/4/5
f 514/4/5 511/4/5 510/4/5
f 515/4/5 511/4/5 514/4/5
f 516/4/5 513/4/5 512/4/5
f 517/4/5 513/4/5 516/4/5
f 522/4/5 519/4/5 518/4/5
f 523/4/5 519/4/5 522/4/5
f 524/4/5 521/4/5 520/4/5
f 525/4/5 521/4/5 524/4/5
f 534/1/5 527/1/5 526/1/5
f 535/1/5 527/1/5 534/1/5
f 536/1/5 529/1/5 528/1/5
f 537/1/5 529/1/5 536/1/5
f 538/1/5 531/1/5 530/1/5
f 539/1/5 531/1/5 538/1/5
f 541/2/5 533/2/5 532/2/5
f 541/2/5 534/2/5 533/2/5
f 542/2/5 534/2/5 541/2/5
f 543/2/5 540/2/5 539/2/5
f 543/2/5 539/2/5 538/2/5
f 543/2/5 537/2/5 536/2/5
f 543/2/5 538/2/5 537/2/5
f 543/2/5 536/2/5 535/2/5
f 544/2/5 540/2/5 543/2/5
f 545/2/5 542/2/5 541/2/5
f 545/2/5 543/2/5 542/2/5
f 545/2/5 544/2/5 543/2/5
f 546/2/5 544/2/5 545/2/5
f 547/2/5 546/2/5 545/2/5
f 548/2/5 546/2/5 547/2/5
f 549/2/5 548/2/5 547/2/5
f 550/2/5 548/2/5 549/2/5
f 551/2/5 550/2/5 549/2/5
f 552/2/5 550/2/5 551/2/5
f 553/2/6 554/2/6 556/2/6
f 556/2/6 554/2/6 557/2/6
f 555/2/6 556/2/6 559/2/6
f 557/2/6 558/2/6 559/2/6
f 556/2/6 557/2/6 559/2/6
f 559/2/6 558/2/6 560/2/6
f 555/2/6 559/2/6 561/2/6
f 561/2/6 559/2/6 562/2/6
f 560/2/6 558/2/6 563/2/6
f 563/2/6 558/2/6 564/2/6
f 564/2/6 558/2/6 565/2/6
f 565/2/6 558/2/6 566/2/6
f 564/2/6 565/2/6 568/2/6
f 568/2/6 565/2/6 569/2/6
f 567/2/6 568/2/6 571/2/6
f 569/2/6 570/2/6 572/2/6
f 567/2/6 571/2/6 573/2/6
f 571/2/6 572/2/6 573/2/6
f 572/2/6 570/2/6 574/2/6
f 573/2/6 572/2/6 574/2/6
f 575/2/6 576/2/6 578/2/6
f 578/2/6 576/2/6 579/2/6
f 577/2/6 578/2/6 580/2/6
f 580/2/6 578/2/6 581/2/6
f 582/2/6 583/2/6 586/2/6
f 586/2/6 583/2/6 587/2/6
f 584/2/6 585/2/6 588/2/6
f 588/2/6 585/2/6 589/2/6
f 582/2/6 586/2/6 592/2/6
f 592/2/6 586/2/6 593/2/6
f 590/2/6 591/2/6 594/2/6
f 594/2/6 591/2/6 595/2/6
f 593/2/6 594/2/6 596/2/6
f 596/2/6 594/2/6 597/2/6
f 589/2/6 585/2/6 598/2/6
f 598/2/6 585/2/6 599/2/6
f 600/2/6 601/2/6 604/2/6
f 604/2/6 601/2/6 605/2/6
f 602/2/6 603/2/6 606/2/6
f 606/2/6 603/2/6 607/2/6
f 605/2/6 606/2/6 608/2/6
f 608/2/6 606/2/6 609/2/6
f 610/1/6 611/1/6 614/1/6
f 614/1/6 611/1/6 615/1/6
f 612/1/6 613/1/6 616/1/6
f 616/1/6 613/1/6 617/1/6
f 618/2/6 619/2/6 622/2/6
f 622/2/6 619/2/6 623/2/6
f 620/2/6 621/2/6 624/2/6
f 624/2/6 621/2/6 625/2/6
f 623/2/6 624/2/6 626/2/6
f 626/2/6 624/2/6 627/2/6
f 628/2/6 629/2/6 632/2/6
f 632/2/6 629/2/6 633/2/6
f 630/2/6 631/2/6 634/2/6
f 634/2/6 631/2/6 635/2/6
f 633/2/6 634/2/6 636/2/6
f 636/2/6 634/2/6 637/2/6
f 638/4/6 639/4/6 642/4/6
f 642/4/6 639/4/6 643/4/6
f 640/4/6 641/4/6 644/4/6
f 644/4/6 641/4/6 645/4/6
f 646/4/6 647/4/6 650/4/6
f 650/4/6 647/4/6 651/4/6
f 648/4/6 649/4/6 652/4/6
f 652/4/6 649/4/6 653/4/6
f 654/4/6 655/4/6 658/4/6
f 658/4/6 655/4/6 659/4/6
f 656/4/6 657/4/6 660/4/6
f 660/4/6 657/4/6 661/4/6
f 662/2/6 663/2/6 666/2/6
f 666/2/6 663/2/6 667/2/6
f 664/2/6 665/2/6 668/2/6
f 668/2/6 665/2/6 669/2/6
f 667/2/6 668/2/6 670/2/6
f 667/2/6 670/2/6 672/2/6
f 670/2/6 671/2/6 672/2/6
f 672/2/6 671/2/6 673/2/6
f 676/2/6 677/2/6 678/2/6
f 678/2/6 677/2/6 679/2/6
f 674/2/6 675/2/6 682/2/6
f 682/2/6 675/2/6 683/2/6
f 680/2/6 681/2/6 684/2/6
f 684/2/6 681/2/6 685/2/6
f 686/2/6 687/2/6 688/2/6
f 688/2/6 687/2/6 689/2/6
f 690/2/6 691/2/6 692/2/6
f 692/2/6 691/2/6 693/2/6
f 693/2/6 691/2/6 694/2/6
f 694/2/6 691/2/6 695/2/6
f 696/2/6 697/2/6 700/2/6
f 698/2/6 699/2/6 703/2/6
f 700/2/6 701/2/6 704/2/6
f 696/2/6 700/2/6 704/2/6
f 704/2/6 701/2/6 705/2/6
f 702/2/6 703/2/6 706/2/6
f 703/2/6 699/2/6 707/2/6
f 706/2/6 703/2/6 707/2/6
